<?xml version="1.0" encoding="UTF-8" ?>
<!DOCTYPE svg PUBLIC "-//W3C//DTD SVG 1.1//EN" "http://www.w3.org/Graphics/SVG/1.1/DTD/svg11.dtd">
<svg width="1180pt" height="854pt" viewBox="0 0 2360 1708" version="1.1" xmlns="http://www.w3.org/2000/svg">
<g id="#bf2928ff">
<path fill="#bf2928" opacity="1.00" d=" M 588.45 65.39 C 622.43 65.45 656.42 65.36 690.41 65.44 C 693.90 89.13 697.46 112.82 700.85 136.53 C 722.77 142.08 744.30 149.49 764.49 159.75 C 773.22 164.00 781.46 169.15 789.84 174.04 C 809.20 159.18 828.66 144.43 848.10 129.67 C 858.52 140.62 869.32 151.23 879.81 162.11 C 884.08 167.19 889.37 171.25 893.89 176.09 C 902.71 184.67 911.46 193.32 920.20 201.98 C 905.80 221.50 891.21 240.89 876.72 260.35 C 893.47 287.65 906.30 317.49 913.20 348.82 C 919.57 350.58 926.40 350.88 932.96 352.04 C 950.45 354.62 967.94 357.12 985.43 359.69 C 985.51 393.67 985.37 427.65 985.50 461.63 C 961.37 465.46 937.10 468.44 913.00 472.46 C 906.63 503.95 893.36 533.77 876.66 561.10 C 890.69 579.81 904.60 598.61 918.65 617.31 C 919.01 618.19 920.67 619.46 919.46 620.34 C 903.70 635.97 887.47 651.14 872.14 667.20 C 864.05 675.32 856.18 683.64 848.10 691.77 C 828.61 677.31 809.15 662.80 789.77 648.19 C 762.31 664.94 732.39 677.87 700.91 684.73 C 697.46 708.46 693.90 732.18 690.46 755.92 C 658.17 756.23 625.88 755.97 593.58 756.05 C 593.59 712.47 593.55 668.88 593.61 625.29 C 630.42 632.07 668.95 631.10 704.80 619.81 C 740.60 608.81 773.40 588.33 799.06 561.05 C 823.53 535.24 841.47 503.30 850.82 468.98 C 862.22 427.38 861.04 382.42 847.44 341.49 C 836.50 308.34 817.40 277.99 792.46 253.59 C 764.21 226.09 728.48 206.26 690.03 197.35 C 653.60 188.79 614.97 189.68 579.02 200.09 C 556.35 206.65 534.74 216.90 515.41 230.43 C 514.41 231.14 513.30 231.74 512.04 231.61 C 468.07 231.63 424.10 231.61 380.13 231.62 C 372.92 221.76 365.65 211.93 358.47 202.04 C 382.97 178.35 406.99 154.17 430.70 129.70 C 448.03 142.90 465.38 156.08 482.70 169.28 C 484.83 170.82 486.73 172.74 489.14 173.86 C 501.57 166.39 514.23 159.18 527.60 153.48 C 543.85 146.17 560.94 141.01 578.10 136.34 C 581.31 112.66 584.96 89.03 588.45 65.39 Z" />
<path fill="#bf2928" opacity="1.00" d=" M 402.82 260.43 C 483.23 260.34 563.63 260.42 644.04 260.39 C 680.95 261.33 717.45 276.23 744.07 301.89 C 769.19 326.54 785.47 360.09 788.97 395.14 C 793.19 432.65 782.36 471.44 759.71 501.59 C 738.17 531.39 704.45 551.47 668.52 558.35 C 638.19 564.21 606.18 560.44 577.91 548.06 C 573.44 546.30 569.29 543.85 564.84 542.05 C 565.43 553.02 564.45 563.98 565.08 574.95 C 565.39 579.62 564.59 584.28 564.96 588.96 C 565.54 595.63 564.67 602.30 564.89 608.98 C 565.45 619.99 564.80 631.02 565.06 642.03 C 565.57 655.16 564.35 668.29 565.21 681.40 C 539.68 674.44 515.22 663.72 492.61 650.00 C 492.56 577.05 492.58 504.09 492.60 431.13 C 516.46 431.32 540.34 430.92 564.20 431.34 C 567.96 447.55 577.75 462.07 590.87 472.22 C 616.86 493.40 656.74 493.94 684.06 474.94 C 701.25 463.24 713.27 444.36 717.11 423.98 C 722.81 393.30 707.14 360.44 680.61 344.42 C 670.45 338.16 658.86 334.23 646.98 333.12 C 639.66 332.37 632.30 332.67 624.96 332.62 C 539.96 332.61 454.96 332.63 369.96 332.61 C 377.37 307.12 389.01 283.04 402.82 260.43 Z" />
<path fill="#bf2928" opacity="1.00" d=" M 294.22 361.37 C 338.04 361.43 381.85 361.36 425.67 361.41 C 417.30 400.11 418.66 441.12 431.23 478.78 C 438.11 499.63 448.02 519.50 460.67 537.44 C 461.94 539.46 464.11 541.30 463.81 543.92 C 463.77 584.85 463.84 625.77 463.77 666.70 C 452.82 675.06 441.88 683.45 430.95 691.84 C 420.69 681.83 410.81 671.45 400.75 661.24 C 395.20 654.78 388.58 649.39 382.70 643.26 C 374.56 635.41 366.49 627.49 358.52 619.47 C 373.34 600.04 388.13 580.59 402.88 561.12 C 385.40 533.98 373.04 503.71 365.49 472.36 C 341.76 468.60 317.94 465.34 294.18 461.73 C 294.23 428.28 294.16 394.83 294.22 361.37 Z" />
</g>
</svg>
