<?xml version="1.0" encoding="UTF-8" ?>
<!DOCTYPE svg PUBLIC "-//W3C//DTD SVG 1.1//EN" "http://www.w3.org/Graphics/SVG/1.1/DTD/svg11.dtd">
<svg width="500pt" height="500pt" viewBox="0 0 500 500" version="1.1" xmlns="http://www.w3.org/2000/svg">
<g id="#be2928fe">
<path fill="#be2928" opacity="1.00" d=" M 213.17 0.00 L 286.70 0.00 C 288.59 17.26 291.28 34.43 294.16 51.55 C 313.73 56.47 332.68 63.78 350.14 73.94 C 353.10 75.00 356.09 78.25 359.40 77.39 C 373.56 68.00 386.34 56.71 400.13 46.80 C 417.68 64.04 435.06 81.46 452.35 98.97 C 442.14 113.10 431.48 126.89 421.07 140.88 C 433.16 160.64 442.54 182.15 447.39 204.86 C 464.85 208.07 482.60 209.53 500.00 213.06 L 500.00 286.33 C 482.50 289.22 464.89 291.31 447.39 294.13 C 442.73 317.09 432.61 338.36 421.26 358.68 C 431.84 372.30 442.21 386.09 452.35 400.04 C 435.06 417.54 417.66 434.95 400.14 452.22 C 386.03 441.97 372.28 431.25 358.17 421.01 C 338.44 433.19 316.81 442.37 294.16 447.43 C 291.28 464.53 288.69 481.69 286.58 498.90 C 263.39 499.06 240.20 499.07 217.01 498.97 C 216.97 467.66 216.96 436.36 217.03 405.05 C 256.77 411.96 299.40 405.48 333.71 383.74 C 381.31 354.81 410.99 298.72 407.77 243.06 C 406.28 196.37 382.73 150.69 344.97 123.04 C 301.03 89.15 238.75 81.78 187.94 103.94 C 177.08 108.10 167.83 115.66 156.96 119.65 C 125.37 120.77 93.73 119.66 62.12 119.95 C 56.95 112.95 51.79 105.94 46.70 98.89 C 64.25 81.66 81.52 64.18 98.86 46.74 C 113.11 57.02 126.70 68.17 141.02 78.35 C 160.92 66.37 182.37 56.84 205.08 51.66 C 208.34 34.53 209.91 17.13 213.17 0.00 Z" />
<path fill="#be2928" opacity="1.00" d=" M 78.40 141.18 C 134.94 140.75 191.47 141.14 248.01 140.97 C 267.97 140.47 287.92 145.93 305.25 155.75 C 337.18 174.12 357.91 210.16 358.00 246.99 C 359.55 270.03 351.79 292.98 338.88 311.85 C 319.78 340.69 285.45 358.09 251.01 357.96 C 231.82 359.18 213.34 352.55 196.08 344.87 C 195.83 378.31 196.18 411.75 195.91 445.18 C 177.91 439.60 160.20 432.70 144.15 422.71 C 143.79 369.94 144.11 317.17 143.98 264.41 C 161.12 265.24 178.29 264.93 195.44 265.15 C 201.00 285.07 218.38 301.84 239.12 304.85 C 262.83 309.78 288.88 297.55 299.93 275.93 C 313.36 252.57 305.50 220.67 284.16 204.85 C 272.64 195.57 257.45 193.00 243.02 193.06 C 180.27 192.83 117.52 193.16 54.77 192.93 C 60.77 174.89 68.43 157.40 78.40 141.18 Z" />
<path fill="#be2928" opacity="1.00" d=" M 0.00 214.00 C 31.66 214.04 63.31 213.91 94.97 214.05 C 85.83 256.63 94.04 303.08 119.22 338.86 C 124.35 344.69 122.57 352.91 123.14 359.98 C 123.08 384.82 123.10 409.67 122.75 434.51 C 114.84 440.48 106.99 446.53 98.98 452.36 C 81.47 435.07 64.04 417.68 46.79 400.12 C 57.52 386.35 67.82 372.25 78.67 358.58 C 66.78 338.46 57.14 316.95 51.69 294.16 C 34.53 290.98 17.14 289.26 0.00 286.03 L 0.00 214.00 Z" />
</g>
</svg>
