<?xml version="1.0" encoding="UTF-8" ?>
<!DOCTYPE svg PUBLIC "-//W3C//DTD SVG 1.1//EN" "http://www.w3.org/Graphics/SVG/1.1/DTD/svg11.dtd">
<svg width="1280pt" height="854pt" viewBox="0 0 1280 854" version="1.1" xmlns="http://www.w3.org/2000/svg">
<g id="#54141470">
<path fill="#541414" opacity="0.44" d=" M 104.21 260.95 C 115.80 261.03 127.39 261.04 138.99 260.99 C 139.01 261.65 139.07 262.97 139.10 263.63 L 138.47 263.54 C 127.33 262.95 114.51 258.96 104.09 264.49 L 103.39 264.90 C 103.59 263.92 104.00 261.94 104.21 260.95 Z" />
<path fill="#541414" opacity="0.44" d=" M 138.57 267.26 C 140.16 267.54 140.46 268.39 139.48 269.80 L 138.80 269.74 C 138.74 269.12 138.63 267.88 138.57 267.26 Z" />
<path fill="#541414" opacity="0.44" d=" M 103.37 268.17 L 104.03 268.12 C 103.99 268.78 103.91 270.11 103.87 270.77 L 103.14 270.89 C 103.20 270.21 103.32 268.85 103.37 268.17 Z" />
<path fill="#541414" opacity="0.44" d=" M 101.54 280.69 L 102.25 280.73 C 102.14 281.38 101.93 282.67 101.83 283.32 L 101.18 283.21 C 101.27 282.58 101.45 281.32 101.54 280.69 Z" />
<path fill="#541414" opacity="0.44" d=" M 191.12 282.83 C 192.79 282.11 194.60 284.95 193.12 286.11 L 192.63 285.86 C 192.40 285.59 191.93 285.06 191.69 284.79 C 191.55 284.30 191.26 283.32 191.12 282.83 Z" />
<path fill="#541414" opacity="0.44" d=" M 54.96 284.46 C 56.65 284.17 57.21 284.80 56.63 286.35 C 56.13 286.04 55.14 285.42 54.64 285.11 L 54.96 284.46 Z" />
<path fill="#541414" opacity="0.44" d=" M 186.57 286.34 C 185.90 284.82 186.40 284.07 188.07 284.07 L 188.27 284.73 C 187.85 285.13 187.00 285.94 186.57 286.34 Z" />
<path fill="#541414" opacity="0.44" d=" M 59.07 287.56 C 60.57 286.86 61.26 287.29 61.14 288.84 C 60.58 288.70 59.45 288.43 58.88 288.29 L 59.07 287.56 Z" />
<path fill="#541414" opacity="0.44" d=" M 182.37 289.40 C 181.88 287.82 182.46 287.21 184.12 287.57 L 184.38 288.30 C 183.88 288.58 182.87 289.12 182.37 289.40 Z" />
<path fill="#541414" opacity="0.44" d=" M 63.08 290.45 C 64.57 289.75 65.28 290.15 65.21 291.65 C 64.61 291.52 63.43 291.26 62.84 291.13 L 63.08 290.45 Z" />
<path fill="#541414" opacity="0.44" d=" M 177.69 291.56 C 177.71 290.03 178.44 289.67 179.87 290.47 L 180.01 291.22 C 179.43 291.31 178.27 291.48 177.69 291.56 Z" />
<path fill="#541414" opacity="0.44" d=" M 111.79 303.62 C 112.65 303.00 113.59 302.79 114.61 303.00 L 114.46 303.81 C 113.80 303.76 112.46 303.67 111.79 303.62 Z" />
<path fill="#541414" opacity="0.44" d=" M 28.88 307.63 L 29.44 307.17 C 29.91 307.56 30.86 308.32 31.33 308.71 L 30.66 309.08 C 30.21 308.72 29.32 307.99 28.88 307.63 Z" />
<path fill="#541414" opacity="0.44" d=" M 213.50 307.04 L 214.07 307.47 C 214.22 309.06 213.62 309.55 212.26 308.95 C 212.57 308.47 213.19 307.52 213.50 307.04 Z" />
<path fill="#541414" opacity="0.44" d=" M 445.66 310.35 C 447.42 309.92 448.08 310.59 447.63 312.35 C 446.69 311.95 446.04 311.28 445.66 310.35 Z" />
<path fill="#541414" opacity="0.44" d=" M 208.89 312.60 C 209.11 312.08 209.54 311.04 209.76 310.52 L 210.48 310.93 C 210.94 312.59 210.41 313.15 208.89 312.60 Z" />
<path fill="#541414" opacity="0.44" d=" M 81.89 316.34 C 80.31 315.69 81.53 313.95 82.83 314.17 C 82.59 314.71 82.12 315.80 81.89 316.34 Z" />
<path fill="#541414" opacity="0.44" d=" M 206.00 316.82 C 206.17 316.30 206.51 315.27 206.69 314.75 L 207.49 315.04 C 208.07 316.64 207.58 317.23 206.00 316.82 Z" />
<path fill="#541414" opacity="0.44" d=" M 167.05 318.98 C 168.40 320.08 169.78 321.16 171.17 322.23 L 170.97 322.71 C 168.92 323.66 166.49 320.95 167.05 318.98 Z" />
<path fill="#541414" opacity="0.44" d=" M 202.50 320.64 C 202.78 320.17 203.34 319.23 203.62 318.76 L 204.38 319.13 C 204.65 320.78 204.03 321.29 202.50 320.64 Z" />
<path fill="#541414" opacity="0.44" d=" M 43.30 325.14 C 70.67 325.33 98.11 323.91 125.42 326.03 C 98.30 325.14 71.07 327.34 44.01 325.27 L 43.30 325.14 Z" />
<path fill="#541414" opacity="0.44" d=" M 173.92 325.88 C 175.40 326.99 176.72 328.30 178.06 329.57 L 177.49 329.83 C 175.43 330.22 173.22 327.88 173.92 325.88 Z" />
<path fill="#541414" opacity="0.44" d=" M 179.12 331.99 L 179.92 331.83 C 180.12 332.34 180.53 333.36 180.73 333.87 L 180.03 334.14 C 179.80 333.60 179.35 332.52 179.12 331.99 Z" />
<path fill="#541414" opacity="0.44" d=" M 160.21 344.09 C 161.84 343.74 162.33 344.36 161.67 345.97 L 160.89 346.15 C 160.72 345.64 160.38 344.61 160.21 344.09 Z" />
<path fill="#541414" opacity="0.44" d=" M 32.55 349.21 L 33.65 349.18 C 63.93 348.89 94.23 348.60 124.50 349.67 C 93.86 349.96 63.16 350.77 32.55 349.21 Z" />
<path fill="#541414" opacity="0.44" d=" M 234.59 358.61 L 236.00 359.01 C 235.98 370.10 236.05 381.20 235.64 392.30 C 235.06 381.07 234.90 369.84 234.59 358.61 Z" />
<path fill="#541414" opacity="0.44" d=" M 192.27 361.37 C 192.98 362.13 193.29 363.04 193.19 364.08 L 192.41 364.05 C 192.37 363.38 192.30 362.04 192.27 361.37 Z" />
<path fill="#541414" opacity="0.44" d=" M 193.23 366.34 C 193.25 371.99 193.35 377.64 193.35 383.30 L 192.79 383.96 C 192.94 378.07 193.01 372.21 193.23 366.34 Z" />
<path fill="#541414" opacity="0.44" d=" M 49.01 369.16 L 49.21 369.64 C 50.27 373.08 49.95 376.93 49.29 380.45 L 49.22 380.78 C 49.11 376.91 49.05 373.01 49.01 369.16 Z" />
<path fill="#541414" opacity="0.44" d=" M 147.33 372.41 C 147.47 373.80 147.74 376.57 147.87 377.96 L 147.21 378.15 C 145.67 376.72 146.07 373.88 147.33 372.41 Z" />
<path fill="#541414" opacity="0.44" d=" M 170.04 382.66 L 170.42 382.19 C 172.13 382.54 171.78 385.65 170.03 385.59 C 169.97 384.61 169.97 383.63 170.04 382.66 Z" />
<path fill="#541414" opacity="0.44" d=" M 192.73 386.93 L 193.45 386.90 C 193.38 388.11 193.14 389.32 192.66 390.45 C 191.38 389.29 191.40 388.12 192.73 386.93 Z" />
<path fill="#541414" opacity="0.44" d=" M 99.82 389.82 C 102.49 391.35 104.84 393.48 105.79 396.51 C 105.47 396.03 104.85 395.05 104.54 394.56 C 103.90 393.23 102.94 392.84 101.65 393.38 C 101.04 392.19 100.43 391.00 99.82 389.82 Z" />
<path fill="#541414" opacity="0.44" d=" M 140.42 393.21 C 138.98 391.80 141.18 388.92 142.86 390.17 C 142.31 391.37 141.35 392.29 140.42 393.21 Z" />
<path fill="#541414" opacity="0.44" d=" M 28.97 395.11 C 30.63 395.27 31.95 396.58 31.94 398.28 C 30.48 399.01 29.01 396.93 28.83 395.63 L 28.97 395.11 Z" />
<path fill="#541414" opacity="0.44" d=" M 211.04 398.24 C 210.84 396.48 212.39 395.29 214.00 395.12 L 214.13 395.63 C 213.90 396.90 212.48 398.95 211.04 398.24 Z" />
<path fill="#541414" opacity="0.44" d=" M 116.68 400.97 C 117.21 399.48 118.04 399.44 119.17 400.83 L 119.07 401.46 C 118.48 401.34 117.28 401.09 116.68 400.97 Z" />
<path fill="#541414" opacity="0.44" d=" M 159.64 406.06 L 160.36 406.32 C 161.74 407.70 159.32 409.89 157.91 408.95 C 158.47 407.97 159.04 407.01 159.64 406.06 Z" />
<path fill="#541414" opacity="0.44" d=" M 152.29 413.86 C 153.37 412.84 154.47 411.84 155.52 410.79 L 155.73 411.36 C 156.02 412.97 154.24 415.87 152.48 414.57 L 152.29 413.86 Z" />
<path fill="#541414" opacity="0.44" d=" M 60.78 415.42 C 62.13 414.29 64.26 416.54 63.03 417.82 C 61.88 417.48 61.29 416.39 60.78 415.42 Z" />
<path fill="#541414" opacity="0.44" d=" M 178.37 420.25 C 178.61 419.70 179.07 418.60 179.31 418.04 L 180.07 418.30 C 179.80 418.83 179.25 419.88 178.97 420.41 L 178.37 420.25 Z" />
<path fill="#541414" opacity="0.44" d=" M 42.31 423.00 C 43.83 423.57 44.42 425.43 43.05 426.54 L 42.33 426.11 C 42.33 425.33 42.32 423.78 42.31 423.00 Z" />
<path fill="#541414" opacity="0.44" d=" M 114.09 424.05 C 115.09 424.06 116.07 424.13 117.06 424.27 L 117.49 424.72 C 116.46 425.97 115.35 425.98 114.16 424.73 L 114.09 424.05 Z" />
<path fill="#541414" opacity="0.44" d=" M 171.46 427.84 C 170.10 425.73 173.38 423.08 175.32 424.44 C 174.05 425.58 172.78 426.74 171.46 427.84 Z" />
<path fill="#541414" opacity="0.44" d=" M 40.70 427.81 C 41.10 427.38 41.92 426.53 42.33 426.11 L 43.05 426.54 C 42.56 427.59 41.77 428.01 40.70 427.81 Z" />
<path fill="#541414" opacity="0.44" d=" M 201.30 427.05 L 201.93 426.90 C 202.08 427.47 202.37 428.61 202.51 429.17 L 201.76 429.42 C 201.65 428.83 201.42 427.65 201.30 427.05 Z" />
<path fill="#541414" opacity="0.44" d=" M 37.73 431.93 C 38.13 431.48 38.95 430.57 39.35 430.12 L 40.11 430.42 C 39.65 431.53 38.86 432.03 37.73 431.93 Z" />
<path fill="#541414" opacity="0.44" d=" M 204.03 431.17 L 204.64 430.87 C 204.82 431.44 205.18 432.58 205.36 433.16 L 204.70 433.45 C 204.53 432.88 204.20 431.74 204.03 431.17 Z" />
<path fill="#541414" opacity="0.44" d=" M 341.32 433.07 C 343.26 433.06 347.13 433.02 349.07 433.00 C 349.06 445.15 349.08 457.31 348.47 469.46 L 348.45 468.80 C 348.05 457.44 348.30 446.07 347.72 434.73 C 346.27 434.36 343.39 433.61 341.95 433.24 L 341.32 433.07 Z" />
<path fill="#541414" opacity="0.44" d=" M 403.62 433.75 C 403.49 431.56 407.89 432.23 407.25 434.31 C 406.03 434.17 404.81 434.03 403.62 433.75 Z" />
<path fill="#541414" opacity="0.44" d=" M 422.24 433.01 C 424.53 433.00 426.83 432.97 429.14 432.93 C 427.93 433.69 425.51 435.23 424.30 435.99 C 422.94 442.31 422.91 448.80 422.40 455.23 C 421.98 454.59 421.56 453.96 421.15 453.33 C 421.64 446.56 421.95 439.78 422.24 433.01 Z" />
<path fill="#541414" opacity="0.44" d=" M 482.97 433.01 C 487.63 432.98 492.33 432.99 497.00 432.98 L 496.96 434.36 C 492.64 434.16 488.34 434.03 484.05 433.89 C 484.00 445.57 484.11 457.26 483.73 468.94 L 483.70 469.65 C 482.87 457.45 482.91 445.22 482.97 433.01 Z" />
<path fill="#541414" opacity="0.44" d=" M 561.44 433.81 C 561.79 431.86 566.14 431.95 566.19 434.00 C 564.60 434.16 563.00 434.09 561.44 433.81 Z" />
<path fill="#541414" opacity="0.44" d=" M 579.75 434.24 C 582.64 433.80 585.65 433.47 588.55 434.08 L 587.36 434.12 C 585.15 434.18 582.97 434.22 580.80 434.24 L 579.75 434.24 Z" />
<path fill="#541414" opacity="0.44" d=" M 717.51 433.56 C 725.40 433.11 733.45 432.65 741.26 434.36 C 733.44 434.13 725.62 433.96 717.82 433.58 L 717.51 433.56 Z" />
<path fill="#541414" opacity="0.44" d=" M 793.10 433.38 C 797.77 433.41 802.52 433.34 807.22 433.66 C 802.70 433.54 798.23 433.53 793.75 433.40 L 793.10 433.38 Z" />
<path fill="#541414" opacity="0.44" d=" M 869.98 432.98 C 872.35 433.02 874.75 433.00 877.16 432.93 C 869.07 434.39 871.89 443.27 870.97 448.95 C 870.75 455.57 870.85 462.22 870.71 468.85 L 870.69 469.52 C 869.91 457.35 869.91 445.16 869.98 432.98 Z" />
<path fill="#541414" opacity="0.44" d=" M 939.03 433.07 C 942.13 433.03 945.47 433.10 948.63 433.11 L 948.11 433.25 C 945.04 433.98 942.14 434.73 939.16 435.53 C 939.13 434.92 939.06 433.69 939.03 433.07 Z" />
<path fill="#541414" opacity="0.44" d=" M 1011.32 433.08 C 1013.25 433.06 1017.10 433.02 1019.03 433.00 C 1019.00 442.61 1019.00 452.23 1019.03 461.84 L 1018.07 461.76 C 1018.04 452.73 1018.10 443.71 1017.72 434.70 C 1016.28 434.34 1013.39 433.61 1011.95 433.24 L 1011.32 433.08 Z" />
<path fill="#541414" opacity="0.44" d=" M 206.99 435.11 C 208.48 434.95 208.92 435.63 208.33 437.15 L 207.66 437.44 C 207.49 436.85 207.16 435.69 206.99 435.11 Z" />
<path fill="#541414" opacity="0.44" d=" M 502.63 434.68 C 504.21 435.06 504.47 435.88 503.41 437.14 C 502.39 436.50 502.13 435.68 502.63 434.68 Z" />
<path fill="#541414" opacity="0.44" d=" M 31.34 441.19 C 30.53 439.79 30.88 439.00 32.40 438.83 C 32.33 439.43 32.20 440.62 32.13 441.22 L 31.34 441.19 Z" />
<path fill="#541414" opacity="0.44" d=" M 210.01 439.03 C 211.54 439.01 211.91 439.73 211.13 441.18 L 210.40 441.35 C 210.30 440.77 210.11 439.61 210.01 439.03 Z" />
<path fill="#541414" opacity="0.44" d=" M 659.31 440.85 C 659.53 439.68 660.75 438.97 661.90 439.24 C 662.67 440.64 660.24 442.09 659.31 440.85 Z" />
<path fill="#541414" opacity="0.44" d=" M 724.82 440.30 C 725.82 449.76 725.90 459.29 725.80 468.81 L 725.79 469.49 C 725.12 459.89 724.88 450.28 724.82 440.67 L 724.82 440.30 Z" />
<path fill="#541414" opacity="0.44" d=" M 817.95 444.83 C 820.18 444.93 820.27 450.00 818.06 450.20 C 818.03 448.86 817.97 446.17 817.95 444.83 Z" />
<path fill="#541414" opacity="0.44" d=" M 106.65 489.53 C 105.78 474.93 105.56 460.27 106.55 445.68 L 106.59 446.85 C 107.13 460.85 107.11 474.87 106.67 488.88 L 106.65 489.53 Z" />
<path fill="#541414" opacity="0.44" d=" M 118.15 447.66 C 119.66 446.37 122.25 446.37 123.80 447.61 L 123.78 447.98 C 121.92 448.10 120.05 448.13 118.19 448.04 L 118.15 447.66 Z" />
<path fill="#541414" opacity="0.44" d=" M 195.69 461.81 C 200.04 456.52 205.09 451.86 210.38 447.54 C 205.77 452.55 201.35 457.91 195.69 461.81 Z" />
<path fill="#541414" opacity="0.44" d=" M 34.05 449.17 C 37.98 453.14 41.92 457.12 45.79 461.16 C 41.59 457.84 37.88 453.96 34.56 449.77 L 34.05 449.17 Z" />
<path fill="#541414" opacity="0.44" d=" M 661.82 451.54 C 663.28 449.89 666.17 452.42 664.67 454.06 C 663.68 453.26 662.73 452.42 661.82 451.54 Z" />
<path fill="#541414" opacity="0.44" d=" M 172.85 455.21 C 173.40 455.31 174.49 455.51 175.04 455.61 L 174.76 456.41 C 173.26 457.16 172.63 456.76 172.85 455.21 Z" />
<path fill="#541414" opacity="0.44" d=" M 177.10 457.99 C 177.59 458.20 178.59 458.62 179.08 458.84 L 178.76 459.62 C 177.12 460.10 176.56 459.56 177.10 457.99 Z" />
<path fill="#541414" opacity="0.44" d=" M 642.12 461.47 C 641.56 459.26 645.67 459.80 644.84 461.83 C 643.90 461.84 643.00 461.72 642.12 461.47 Z" />
<path fill="#541414" opacity="0.44" d=" M 181.13 461.12 C 181.64 461.32 182.65 461.72 183.15 461.92 L 182.84 462.70 C 181.20 463.21 180.63 462.68 181.13 461.12 Z" />
<path fill="#541414" opacity="0.44" d=" M 185.24 464.22 C 185.76 464.43 186.80 464.84 187.32 465.05 L 187.07 465.81 C 185.43 466.33 184.82 465.80 185.24 464.22 Z" />
<path fill="#541414" opacity="0.44" d=" M 563.00 465.01 C 563.93 465.39 564.59 466.04 565.00 466.97 C 563.23 467.43 562.57 466.78 563.00 465.01 Z" />
<path fill="#541414" opacity="0.44" d=" M 140.47 470.51 C 140.86 469.67 141.31 468.87 141.81 468.10 C 143.02 468.81 142.91 471.89 141.25 471.86 C 141.05 471.52 140.66 470.85 140.47 470.51 Z" />
<path fill="#541414" opacity="0.44" d=" M 572.11 469.49 C 573.27 468.70 574.72 468.70 575.89 469.49 C 574.62 470.81 573.36 470.81 572.11 469.49 Z" />
<path fill="#541414" opacity="0.44" d=" M 651.12 469.46 C 652.28 468.69 653.73 468.70 654.89 469.50 C 653.61 470.80 652.35 470.79 651.12 469.46 Z" />
<path fill="#541414" opacity="0.44" d=" M 139.83 474.41 L 140.42 474.23 C 141.54 475.27 141.49 477.24 140.84 478.54 L 140.50 478.51 C 140.25 477.89 139.76 476.63 139.51 476.01 C 139.59 475.61 139.75 474.81 139.83 474.41 Z" />
<path fill="#541414" opacity="0.44" d=" M 138.92 481.02 L 139.49 480.82 C 140.65 481.52 140.43 483.95 138.95 484.09 L 138.49 483.71 C 138.60 483.04 138.81 481.69 138.92 481.02 Z" />
</g>
<g id="#bf2928ff">
<path fill="#bf2928" opacity="1.00" d=" M 104.09 264.49 C 114.51 258.96 127.33 262.95 138.47 263.54 C 137.87 264.72 138.29 266.04 138.57 267.26 C 138.63 267.88 138.74 269.12 138.80 269.74 C 138.80 271.00 139.03 272.24 139.40 273.45 C 139.50 274.20 139.70 275.69 139.79 276.44 C 139.82 277.87 139.99 279.30 140.38 280.69 C 140.52 281.35 140.82 282.68 140.97 283.34 C 141.02 284.73 141.99 285.95 143.43 286.07 C 152.42 288.16 160.77 292.20 168.96 296.33 C 169.81 296.78 170.66 297.25 171.51 297.71 C 172.35 296.90 173.18 296.08 174.05 295.30 C 174.51 295.01 175.44 294.45 175.91 294.16 L 176.62 294.00 C 178.18 293.68 178.54 292.86 177.69 291.56 C 178.27 291.48 179.43 291.31 180.01 291.22 C 181.08 290.99 181.87 290.39 182.37 289.40 C 182.87 289.12 183.88 288.58 184.38 288.30 C 185.37 287.93 186.09 287.28 186.57 286.34 C 187.00 285.94 187.85 285.13 188.27 284.73 C 189.42 285.54 190.56 285.56 191.69 284.79 C 191.93 285.06 192.40 285.59 192.63 285.86 C 198.99 293.46 205.67 300.90 213.50 307.04 C 213.19 307.52 212.57 308.47 212.26 308.95 C 210.94 308.53 210.10 309.05 209.76 310.52 C 209.54 311.04 209.11 312.08 208.89 312.60 C 207.57 312.69 206.83 313.40 206.69 314.75 C 206.51 315.27 206.17 316.30 206.00 316.82 C 204.67 316.77 203.88 317.42 203.62 318.76 C 203.34 319.23 202.78 320.17 202.50 320.64 C 201.45 321.27 200.11 322.18 200.36 323.60 C 200.35 325.16 200.38 326.73 200.60 328.28 C 202.16 332.07 204.40 335.57 205.73 339.46 C 206.09 340.72 206.61 341.94 207.24 343.10 C 208.95 346.70 209.88 350.59 211.24 354.33 C 211.51 355.85 213.22 356.12 214.49 356.24 C 215.19 356.35 216.60 356.57 217.30 356.68 C 218.70 356.98 220.13 357.15 221.56 357.19 C 222.25 357.28 223.62 357.46 224.31 357.55 C 225.69 357.87 227.10 358.11 228.52 358.24 C 229.19 358.37 230.52 358.62 231.18 358.75 C 232.28 359.08 233.58 359.39 234.59 358.61 C 234.90 369.84 235.06 381.07 235.64 392.30 L 235.68 392.96 C 234.13 393.10 232.59 393.26 231.05 393.42 C 232.45 391.98 229.99 390.72 229.06 392.13 C 228.67 392.37 227.91 392.85 227.53 393.09 C 226.69 393.48 225.02 394.25 224.18 394.64 C 225.52 393.19 223.09 391.92 222.16 393.33 C 221.76 393.58 220.98 394.09 220.59 394.34 C 219.75 394.43 218.06 394.60 217.22 394.69 C 216.12 394.67 215.04 394.81 214.00 395.12 C 212.39 395.29 210.84 396.48 211.04 398.24 C 210.93 400.01 210.84 401.79 210.77 403.57 L 210.66 403.19 C 210.30 400.38 207.95 402.37 208.73 404.26 C 208.58 410.31 205.95 416.54 201.62 420.78 C 200.40 421.47 199.79 422.77 199.71 424.14 C 198.46 425.40 199.26 428.25 201.30 427.05 C 201.42 427.65 201.65 428.83 201.76 429.42 C 201.83 431.03 202.58 431.61 204.03 431.17 C 204.20 431.74 204.53 432.88 204.70 433.45 C 205.07 434.62 205.83 435.17 206.99 435.11 C 207.16 435.69 207.49 436.85 207.66 437.44 C 208.05 438.61 208.83 439.14 210.01 439.03 C 210.11 439.61 210.30 440.77 210.40 441.35 C 210.59 442.49 211.23 443.18 212.32 443.44 L 213.22 443.72 C 211.19 443.66 209.89 445.66 210.38 447.54 C 205.09 451.86 200.04 456.52 195.69 461.81 C 193.45 463.99 191.16 466.13 188.87 468.29 L 189.03 467.70 L 189.21 467.04 C 189.55 465.56 188.92 464.90 187.32 465.05 C 186.80 464.84 185.76 464.43 185.24 464.22 C 185.19 462.88 184.50 462.11 183.15 461.92 C 182.65 461.72 181.64 461.32 181.13 461.12 C 181.12 459.77 180.43 459.01 179.08 458.84 C 178.59 458.62 177.59 458.20 177.10 457.99 C 177.09 456.61 176.40 455.82 175.04 455.61 C 174.49 455.51 173.40 455.31 172.85 455.21 C 174.10 452.09 169.44 453.27 172.12 455.37 C 170.47 455.60 168.82 455.87 167.16 456.05 C 166.13 456.08 165.33 456.55 164.77 457.45 C 159.35 461.69 152.34 464.08 145.51 464.78 C 144.38 464.64 143.57 465.06 143.07 466.04 C 142.75 466.55 142.12 467.58 141.81 468.10 C 141.31 468.87 140.86 469.67 140.47 470.51 C 139.67 471.65 139.60 473.06 139.83 474.41 C 139.75 474.81 139.59 475.61 139.51 476.01 C 139.02 477.63 138.79 479.31 138.92 481.02 C 138.81 481.69 138.60 483.04 138.49 483.71 C 138.16 485.21 137.82 486.78 138.21 488.31 C 127.71 488.97 117.19 489.16 106.67 488.88 C 107.11 474.87 107.13 460.85 106.59 446.85 C 108.37 447.07 110.15 447.29 111.92 447.52 C 114.00 447.78 116.09 447.95 118.19 448.04 C 120.05 448.13 121.92 448.10 123.78 447.98 C 125.97 447.85 128.18 447.70 130.38 447.54 C 131.11 447.50 132.56 447.41 133.29 447.37 C 134.47 447.44 135.66 447.22 136.74 446.70 C 143.64 444.37 150.41 441.67 157.31 439.36 C 158.35 439.23 159.11 438.70 159.60 437.78 C 160.40 436.63 161.28 435.54 162.13 434.45 L 162.72 434.85 C 164.02 435.61 164.82 435.20 165.13 433.61 L 165.97 432.72 C 167.80 431.09 169.64 429.47 171.46 427.84 C 172.78 426.74 174.05 425.58 175.32 424.44 C 177.11 423.70 178.44 422.27 178.97 420.41 C 179.25 419.88 179.80 418.83 180.07 418.30 C 180.21 417.65 180.48 416.35 180.62 415.70 C 181.98 416.10 183.07 414.89 183.44 413.71 C 187.62 406.42 190.14 398.41 192.66 390.45 C 193.14 389.32 193.38 388.11 193.45 386.90 L 193.75 386.35 C 194.62 385.18 194.49 384.17 193.35 383.30 C 193.35 377.64 193.25 371.99 193.23 366.34 C 193.22 365.77 193.20 364.65 193.19 364.08 C 193.29 363.04 192.98 362.13 192.27 361.37 C 189.34 354.84 187.14 347.94 184.95 341.12 C 184.80 340.11 184.29 339.33 183.41 338.80 C 182.62 337.97 182.02 337.02 181.63 335.94 C 181.40 335.43 180.95 334.39 180.73 333.87 C 180.53 333.36 180.12 332.34 179.92 331.83 C 180.18 330.38 179.55 329.63 178.06 329.57 C 176.72 328.30 175.40 326.99 173.92 325.88 L 174.04 325.36 C 174.85 323.46 172.85 322.16 171.17 322.23 C 169.78 321.16 168.40 320.08 167.05 318.98 C 167.19 317.41 166.52 316.76 165.05 317.03 L 164.34 317.17 L 162.76 317.47 L 162.97 315.89 C 163.85 314.29 161.45 312.99 160.65 314.66 L 159.93 315.36 C 160.11 314.20 159.61 313.49 158.44 313.22 C 152.16 310.90 145.90 308.49 139.88 305.56 C 139.06 304.94 138.14 304.71 137.12 304.87 C 136.59 304.78 135.53 304.60 135.01 304.52 C 134.17 303.90 133.24 303.68 132.23 303.87 C 131.51 303.87 130.07 303.89 129.35 303.89 C 124.43 303.62 119.52 303.44 114.61 303.00 C 113.59 302.79 112.65 303.00 111.79 303.62 C 110.59 303.73 109.42 304.02 108.30 304.48 C 107.70 304.56 106.50 304.74 105.90 304.82 C 104.88 304.66 103.96 304.89 103.13 305.52 C 96.44 308.53 89.86 312.02 82.83 314.17 C 81.53 313.95 80.31 315.69 81.89 316.34 C 66.49 315.92 51.08 316.03 35.68 315.99 L 34.49 315.98 L 34.80 314.54 L 34.97 313.80 C 35.23 312.21 34.57 311.63 33.00 312.05 C 33.94 310.65 32.43 309.35 31.33 308.71 C 30.86 308.32 29.91 307.56 29.44 307.17 C 36.73 301.25 43.27 294.43 48.94 286.94 C 49.77 285.91 50.57 284.86 51.37 283.82 L 51.89 283.16 C 52.28 284.47 53.20 285.12 54.64 285.11 C 55.14 285.42 56.13 286.04 56.63 286.35 C 57.08 287.35 57.83 288.00 58.88 288.29 C 59.45 288.43 60.58 288.70 61.14 288.84 C 61.06 290.03 61.62 290.79 62.84 291.13 C 63.43 291.26 64.61 291.52 65.21 291.65 C 64.41 292.97 64.79 293.77 66.37 294.06 L 67.08 294.21 C 67.65 294.45 68.80 294.95 69.38 295.19 C 69.12 296.59 69.71 297.35 71.14 297.48 L 71.67 297.58 C 72.89 298.41 74.84 296.95 73.30 295.83 C 74.57 295.60 75.84 295.40 77.11 295.23 C 78.14 295.18 78.94 294.70 79.50 293.81 C 85.69 290.05 92.70 287.90 99.63 285.92 C 100.95 285.78 101.67 284.53 101.83 283.32 C 101.93 282.67 102.14 281.38 102.25 280.73 L 102.58 280.04 C 103.34 279.04 103.44 278.00 102.87 276.90 C 102.96 276.12 103.14 274.55 103.23 273.77 C 104.23 272.93 104.45 271.93 103.87 270.77 C 103.91 270.11 103.99 268.78 104.03 268.12 L 104.34 267.45 C 105.26 266.29 105.18 265.31 104.09 264.49 Z" />
<path fill="#bf2928" opacity="1.00" d=" M 44.01 325.27 C 71.07 327.34 98.30 325.14 125.42 326.03 L 126.31 326.31 C 127.39 326.79 128.55 327.06 129.74 327.07 C 130.29 327.16 131.39 327.34 131.94 327.44 C 132.74 328.07 133.64 328.35 134.66 328.28 C 138.63 328.79 142.62 330.24 145.61 332.97 C 146.28 333.90 147.13 334.20 148.17 333.88 L 149.23 333.61 C 148.88 334.68 149.27 335.46 150.38 335.95 L 151.03 336.40 C 154.12 338.92 157.17 341.51 160.21 344.09 C 160.38 344.61 160.72 345.64 160.89 346.15 C 161.06 347.16 161.60 347.92 162.49 348.45 C 165.37 352.96 167.88 357.93 168.69 363.28 C 168.65 364.29 168.98 365.18 169.68 365.93 C 169.91 366.35 170.37 367.19 170.59 367.61 C 170.47 372.62 170.28 377.65 170.04 382.66 C 169.97 383.63 169.97 384.61 170.03 385.59 C 169.87 391.09 167.72 396.89 163.81 400.79 C 162.66 401.40 161.91 402.49 161.73 403.78 C 160.39 403.91 159.70 404.67 159.64 406.06 C 159.04 407.01 158.47 407.97 157.91 408.95 C 156.51 408.69 155.71 409.31 155.52 410.79 C 154.47 411.84 153.37 412.84 152.29 413.86 C 150.89 413.83 150.08 414.49 149.86 415.84 C 145.91 421.09 138.32 423.55 131.84 423.94 C 130.83 423.76 129.91 423.99 129.09 424.61 C 128.69 424.77 127.90 425.07 127.51 425.22 C 124.02 424.92 120.54 424.63 117.06 424.27 C 116.07 424.13 115.09 424.06 114.09 424.05 C 113.50 424.04 112.32 424.01 111.73 424.00 C 106.80 424.24 102.31 421.86 98.26 419.32 C 97.54 418.87 96.81 418.41 96.09 417.97 C 95.94 433.10 96.41 448.25 95.68 463.38 C 95.55 463.75 95.29 464.48 95.16 464.85 C 87.95 463.02 81.40 459.36 74.79 456.06 C 73.45 431.83 74.06 407.55 74.04 383.30 C 81.50 383.03 88.97 382.89 96.42 382.30 C 97.40 384.87 98.52 387.39 99.82 389.82 C 100.43 391.00 101.04 392.19 101.65 393.38 C 102.22 394.59 103.18 394.98 104.54 394.56 C 104.85 395.05 105.47 396.03 105.79 396.51 C 106.15 397.52 106.85 398.11 107.89 398.28 C 110.85 399.06 113.76 400.03 116.68 400.97 C 117.28 401.09 118.48 401.34 119.07 401.46 C 120.17 401.78 122.35 402.42 123.44 402.74 C 123.71 402.43 124.24 401.80 124.51 401.49 C 128.02 400.25 131.60 399.21 135.20 398.24 C 136.24 398.08 136.95 397.50 137.33 396.49 C 137.57 396.14 138.06 395.44 138.30 395.09 C 139.22 394.70 139.93 394.08 140.42 393.21 C 141.35 392.29 142.31 391.37 142.86 390.17 C 144.13 387.88 145.29 385.53 146.47 383.19 C 146.86 382.44 147.24 381.69 147.61 380.94 C 148.63 380.02 148.71 379.03 147.87 377.96 C 147.74 376.57 147.47 373.80 147.33 372.41 C 147.47 371.34 147.21 370.38 146.57 369.54 C 144.82 366.58 143.49 363.40 142.22 360.21 L 141.95 359.52 C 141.92 356.95 140.04 355.08 137.48 355.05 L 136.79 354.78 C 133.72 353.53 130.68 352.20 127.78 350.57 C 126.83 349.88 125.67 349.55 124.50 349.67 C 94.23 348.60 63.93 348.89 33.65 349.18 C 35.19 343.99 36.79 338.76 39.43 334.01 C 40.19 332.85 40.83 331.62 41.33 330.33 C 41.69 329.79 42.40 328.71 42.76 328.17 C 43.57 327.35 43.99 326.38 44.01 325.27 Z" />
<path fill="#bf2928" opacity="1.00" d=" M 8.03 360.02 C 21.98 359.97 35.93 360.03 49.88 360.07 C 49.81 361.44 49.75 362.81 49.69 364.19 C 49.52 365.43 49.18 367.92 49.01 369.16 C 49.05 373.01 49.11 376.91 49.22 380.78 C 49.29 382.75 49.39 384.75 49.54 386.77 L 49.58 387.93 C 49.47 388.96 49.73 389.89 50.36 390.72 C 51.14 392.47 51.61 394.38 51.73 396.30 C 51.60 397.32 51.87 398.22 52.52 399.02 C 54.72 402.84 56.41 406.96 57.82 411.15 C 57.97 412.15 58.49 412.93 59.37 413.47 C 59.73 413.96 60.43 414.93 60.78 415.42 C 61.29 416.39 61.88 417.48 63.03 417.82 L 63.53 418.06 C 62.89 432.58 63.24 447.14 62.53 461.66 L 62.46 462.78 L 60.77 462.26 L 60.05 462.02 C 58.52 461.61 57.87 462.21 58.10 463.83 L 58.25 465.39 L 56.70 465.09 L 55.97 464.94 C 54.45 464.66 53.82 465.31 54.10 466.90 L 54.28 468.77 C 53.87 468.45 53.03 467.79 52.61 467.46 L 52.03 466.95 C 49.94 465.02 47.85 463.11 45.79 461.16 C 41.92 457.12 37.98 453.14 34.05 449.17 C 33.61 446.81 32.12 444.47 29.47 444.41 C 29.75 444.27 30.32 444.00 30.60 443.86 C 31.90 443.43 32.41 442.55 32.13 441.22 C 32.20 440.62 32.33 439.43 32.40 438.83 C 33.72 439.64 34.54 439.26 34.87 437.72 L 35.04 437.01 C 35.42 436.47 36.19 435.39 36.58 434.85 C 38.18 434.69 38.67 433.93 38.05 432.56 L 37.73 431.93 C 38.86 432.03 39.65 431.53 40.11 430.42 C 40.26 429.77 40.55 428.46 40.70 427.81 C 41.77 428.01 42.56 427.59 43.05 426.54 C 44.42 425.43 43.83 423.57 42.31 423.00 C 36.89 415.91 33.22 407.18 31.94 398.28 C 31.95 396.58 30.63 395.27 28.97 395.11 C 27.94 394.80 26.88 394.65 25.79 394.66 C 25.06 394.58 23.60 394.42 22.87 394.34 C 21.73 394.01 20.54 393.86 19.36 393.99 C 18.34 393.91 16.31 393.74 15.29 393.66 C 14.96 393.32 14.29 392.66 13.96 392.32 C 13.39 390.94 11.28 391.07 11.58 392.80 C 10.78 393.16 9.18 393.87 8.38 394.23 C 8.05 382.83 7.81 371.42 8.03 360.02 Z" />
<path fill="#bf2928" opacity="1.00" d=" M 652.01 433.38 C 652.51 433.38 653.51 433.40 654.01 433.40 C 654.79 434.07 655.70 434.35 656.73 434.23 C 658.50 434.23 660.28 434.40 662.06 434.55 C 662.00 436.11 661.95 437.67 661.90 439.24 C 660.75 438.97 659.53 439.68 659.31 440.85 C 657.99 440.40 656.68 439.96 655.38 439.51 C 654.43 439.27 652.53 438.79 651.58 438.55 L 651.26 439.10 C 650.00 441.26 648.62 443.34 647.52 445.60 C 652.29 447.55 657.41 448.81 661.82 451.54 C 662.73 452.42 663.68 453.26 664.67 454.06 C 665.73 457.47 667.69 462.71 663.80 464.82 C 662.83 465.18 662.17 465.84 661.83 466.81 C 660.40 468.96 657.35 469.94 654.89 469.50 C 653.73 468.70 652.28 468.69 651.12 469.46 C 647.54 469.61 644.18 468.06 640.85 467.01 C 641.26 465.15 641.69 463.31 642.12 461.47 C 643.00 461.72 643.90 461.84 644.84 461.83 C 647.19 462.00 649.49 462.59 651.80 463.06 C 652.93 463.27 654.39 463.72 655.34 462.78 C 657.02 461.32 658.26 459.51 659.06 457.34 C 654.13 455.11 648.60 454.01 644.22 450.73 C 643.73 449.85 643.02 449.25 642.09 448.92 C 639.94 445.96 640.35 440.89 642.18 437.77 C 642.86 437.17 643.53 436.55 644.19 435.92 C 645.61 434.79 647.41 434.12 649.24 434.08 C 650.24 434.21 651.17 433.97 652.01 433.38 Z" />
<path fill="#bf2928" opacity="1.00" d=" M 341.95 433.24 C 343.39 433.61 346.27 434.36 347.72 434.73 C 348.30 446.07 348.05 457.44 348.45 468.80 C 346.21 468.83 343.96 468.85 341.72 468.86 C 342.07 456.99 342.03 445.11 341.95 433.24 Z" />
<path fill="#bf2928" opacity="1.00" d=" M 402.56 433.52 L 403.62 433.75 C 404.81 434.03 406.03 434.17 407.25 434.31 C 407.66 434.46 408.47 434.77 408.88 434.92 C 413.63 440.56 417.01 447.23 421.15 453.33 C 421.56 453.96 421.98 454.59 422.40 455.23 C 422.91 448.80 422.94 442.31 424.30 435.99 C 425.51 435.23 427.93 433.69 429.14 432.93 C 429.05 445.03 428.95 457.14 429.24 469.25 C 427.46 469.16 423.90 468.96 422.13 468.87 C 418.46 462.74 413.79 457.06 411.21 450.39 L 411.06 449.47 C 411.47 447.76 408.34 447.41 408.85 449.30 C 408.88 455.60 409.04 461.92 409.27 468.23 L 409.30 469.22 C 407.46 469.16 403.78 469.03 401.94 468.97 C 401.92 457.14 401.96 445.32 402.56 433.52 Z" />
<path fill="#bf2928" opacity="1.00" d=" M 484.05 433.89 C 488.34 434.03 492.64 434.16 496.96 434.36 C 498.85 434.44 500.73 434.57 502.63 434.68 C 502.13 435.68 502.39 436.50 503.41 437.14 C 505.39 438.83 507.17 441.07 507.32 443.79 C 507.49 449.60 507.56 455.42 507.52 461.24 C 507.09 462.27 506.48 463.18 505.68 463.97 C 504.72 464.81 503.81 465.72 502.96 466.68 C 497.73 471.00 489.84 467.89 483.73 468.94 C 484.11 457.26 484.00 445.57 484.05 433.89 M 491.20 439.74 C 490.08 447.45 490.03 455.26 489.75 463.04 C 491.44 462.78 494.84 462.26 496.54 462.00 L 495.84 462.05 C 498.10 462.11 499.82 460.21 500.50 458.22 C 500.70 453.38 500.37 448.51 500.23 443.69 L 500.26 444.36 C 499.23 442.46 497.39 440.90 495.11 441.17 C 495.38 439.30 492.10 438.86 491.21 440.25 L 491.20 439.74 Z" />
<path fill="#bf2928" opacity="1.00" d=" M 561.44 433.81 C 563.00 434.09 564.60 434.16 566.19 434.00 L 567.31 433.91 C 567.86 442.71 568.26 451.52 568.66 460.33 C 568.60 461.76 569.29 462.41 570.72 462.28 C 573.21 462.17 575.84 462.21 578.39 462.13 C 579.61 462.19 580.21 461.60 580.18 460.38 L 580.23 459.49 C 580.61 451.08 580.87 442.66 580.80 434.24 C 582.97 434.22 585.15 434.18 587.36 434.12 C 587.15 443.13 587.06 452.14 587.13 461.16 C 587.13 462.01 587.14 463.70 587.15 464.55 C 586.59 464.63 585.47 464.77 584.91 464.85 C 583.84 464.90 583.12 465.46 582.76 466.52 C 581.53 468.92 578.42 470.00 575.89 469.49 C 574.72 468.70 573.27 468.70 572.11 469.49 C 569.60 469.91 566.64 468.94 565.00 466.97 C 564.59 466.04 563.93 465.39 563.00 465.01 C 561.19 463.74 560.89 461.24 560.74 459.21 C 560.67 450.73 561.15 442.26 561.44 433.81 Z" />
<path fill="#bf2928" opacity="1.00" d=" M 716.69 438.55 C 717.16 436.91 717.53 435.25 717.82 433.58 C 725.62 433.96 733.44 434.13 741.26 434.36 C 740.99 436.02 740.98 437.73 741.22 439.41 C 738.53 439.74 735.87 440.12 733.23 440.55 L 733.14 441.47 C 732.69 450.65 732.94 459.84 732.98 469.04 C 731.19 468.98 727.59 468.86 725.80 468.81 C 725.90 459.29 725.82 449.76 724.82 440.30 C 723.43 440.04 720.67 439.51 719.28 439.24 C 718.64 439.07 717.34 438.73 716.69 438.55 Z" />
<path fill="#bf2928" opacity="1.00" d=" M 793.75 433.40 C 798.23 433.53 802.70 433.54 807.22 433.66 C 809.23 433.94 811.17 434.72 812.87 435.85 C 813.33 436.15 814.24 436.76 814.70 437.06 C 816.70 439.12 817.74 441.99 817.95 444.83 C 817.97 446.17 818.03 448.86 818.06 450.20 C 818.36 452.54 817.41 454.69 815.32 455.82 C 814.24 456.32 813.85 457.11 814.17 458.19 C 815.07 462.07 816.10 465.91 817.04 469.79 C 810.51 470.67 809.02 464.56 806.02 460.63 C 803.99 458.91 802.62 458.92 801.91 460.64 C 801.39 463.39 800.93 466.16 800.53 468.94 C 798.91 468.96 795.66 468.99 794.04 469.01 L 794.04 468.01 C 794.00 456.47 793.96 444.93 793.75 433.40 M 801.61 440.92 C 801.49 445.37 801.45 449.82 801.48 454.30 C 801.19 456.32 805.19 455.78 804.42 453.90 C 810.24 455.32 813.58 449.05 810.21 444.00 C 811.78 443.50 811.44 440.42 809.65 440.75 C 808.56 440.84 806.37 441.02 805.28 441.11 C 805.72 439.05 801.43 438.85 801.61 440.92 Z" />
<path fill="#bf2928" opacity="1.00" d=" M 870.97 448.95 C 871.89 443.27 869.07 434.39 877.16 432.93 C 877.05 444.90 876.92 456.88 877.26 468.85 C 875.07 468.86 872.88 468.86 870.71 468.85 C 870.85 462.22 870.75 455.57 870.97 448.95 Z" />
<path fill="#bf2928" opacity="1.00" d=" M 939.16 435.53 C 942.14 434.73 945.04 433.98 948.11 433.25 C 948.31 434.41 948.72 435.53 949.20 436.62 C 953.08 447.20 955.94 458.13 959.26 468.90 C 957.46 468.91 953.86 468.93 952.06 468.94 C 951.67 467.13 951.29 465.32 950.95 463.51 C 946.70 463.60 942.49 463.37 938.30 463.80 C 937.49 465.37 936.83 467.02 936.17 468.65 C 934.54 468.73 931.29 468.90 929.66 468.98 C 932.40 457.71 936.48 446.82 939.16 435.53 M 944.49 443.70 C 943.01 448.14 941.65 452.62 940.12 457.04 C 942.81 456.98 945.52 456.93 948.24 456.88 C 946.99 452.49 945.71 448.08 944.49 443.70 Z" />
<path fill="#bf2928" opacity="1.00" d=" M 1011.95 433.24 C 1013.39 433.61 1016.28 434.34 1017.72 434.70 C 1018.10 443.71 1018.04 452.73 1018.07 461.76 L 1018.07 462.71 C 1022.74 462.87 1027.50 462.99 1032.22 463.27 L 1033.20 463.34 C 1032.86 464.59 1032.78 465.91 1032.99 467.20 L 1033.12 468.42 C 1025.97 468.73 1018.84 468.87 1011.73 468.89 C 1012.06 457.01 1012.03 445.12 1011.95 433.24 Z" />
</g>
<g id="#8a1d1db9">
<path fill="#8a1d1d" opacity="0.73" d=" M 138.47 263.54 L 139.10 263.63 C 140.02 265.00 139.84 266.21 138.57 267.26 C 138.29 266.04 137.87 264.72 138.47 263.54 Z" />
<path fill="#8a1d1d" opacity="0.73" d=" M 103.39 264.90 L 104.09 264.49 C 105.18 265.31 105.26 266.29 104.34 267.45 C 104.10 266.81 103.63 265.54 103.39 264.90 Z" />
<path fill="#8a1d1d" opacity="0.73" d=" M 138.80 269.74 L 139.48 269.80 C 140.74 271.08 140.71 272.30 139.40 273.45 C 139.03 272.24 138.80 271.00 138.80 269.74 Z" />
<path fill="#8a1d1d" opacity="0.73" d=" M 103.14 270.89 L 103.87 270.77 C 104.45 271.93 104.23 272.93 103.23 273.77 C 103.21 273.05 103.16 271.61 103.14 270.89 Z" />
<path fill="#8a1d1d" opacity="0.73" d=" M 139.79 276.44 C 141.88 276.37 142.10 279.94 140.38 280.69 C 139.99 279.30 139.82 277.87 139.79 276.44 Z" />
<path fill="#8a1d1d" opacity="0.73" d=" M 102.24 277.17 L 102.87 276.90 C 103.44 278.00 103.34 279.04 102.58 280.04 C 102.38 279.61 101.99 278.76 101.79 278.33 L 102.24 277.17 Z" />
<path fill="#8a1d1d" opacity="0.73" d=" M 52.34 282.65 C 53.31 283.10 54.18 283.71 54.96 284.46 L 54.64 285.11 C 53.20 285.12 52.28 284.47 51.89 283.16 L 52.34 282.65 Z" />
<path fill="#8a1d1d" opacity="0.73" d=" M 140.97 283.34 C 142.34 282.45 144.41 284.78 143.43 286.07 C 141.99 285.95 141.02 284.73 140.97 283.34 Z" />
<path fill="#8a1d1d" opacity="0.73" d=" M 188.07 284.07 C 189.07 283.63 190.09 283.21 191.12 282.83 C 191.26 283.32 191.55 284.30 191.69 284.79 C 190.56 285.56 189.42 285.54 188.27 284.73 L 188.07 284.07 Z" />
<path fill="#8a1d1d" opacity="0.73" d=" M 101.18 283.21 L 101.83 283.32 C 101.67 284.53 100.95 285.78 99.63 285.92 C 99.16 284.58 99.68 283.67 101.18 283.21 Z" />
<path fill="#8a1d1d" opacity="0.73" d=" M 56.63 286.35 C 57.24 286.65 58.46 287.25 59.07 287.56 L 58.88 288.29 C 57.83 288.00 57.08 287.35 56.63 286.35 Z" />
<path fill="#8a1d1d" opacity="0.73" d=" M 184.12 287.57 C 184.73 287.27 185.96 286.65 186.57 286.34 C 186.09 287.28 185.37 287.93 184.38 288.30 L 184.12 287.57 Z" />
<path fill="#8a1d1d" opacity="0.73" d=" M 192.63 285.86 L 193.12 286.11 C 200.06 292.04 206.54 298.51 212.57 305.36 C 212.94 305.89 213.70 306.94 214.07 307.47 L 213.50 307.04 C 205.67 300.90 198.99 293.46 192.63 285.86 Z" />
<path fill="#8a1d1d" opacity="0.73" d=" M 30.43 305.34 C 36.04 298.68 42.88 293.18 48.94 286.94 C 43.27 294.43 36.73 301.25 29.44 307.17 L 28.88 307.63 C 29.26 307.05 30.04 305.91 30.43 305.34 Z" />
<path fill="#8a1d1d" opacity="0.73" d=" M 61.14 288.84 C 61.63 289.24 62.60 290.05 63.08 290.45 L 62.84 291.13 C 61.62 290.79 61.06 290.03 61.14 288.84 Z" />
<path fill="#8a1d1d" opacity="0.73" d=" M 179.87 290.47 C 180.49 290.21 181.74 289.67 182.37 289.40 C 181.87 290.39 181.08 290.99 180.01 291.22 L 179.87 290.47 Z" />
<path fill="#8a1d1d" opacity="0.73" d=" M 65.21 291.65 L 66.08 291.73 C 66.15 292.31 66.29 293.47 66.37 294.06 C 64.79 293.77 64.41 292.97 65.21 291.65 Z" />
<path fill="#8a1d1d" opacity="0.73" d=" M 176.83 291.67 L 177.69 291.56 C 178.54 292.86 178.18 293.68 176.62 294.00 C 176.67 293.42 176.78 292.25 176.83 291.67 Z" />
<path fill="#8a1d1d" opacity="0.73" d=" M 77.11 295.23 C 77.12 293.47 77.91 293.00 79.50 293.81 C 78.94 294.70 78.14 295.18 77.11 295.23 Z" />
<path fill="#8a1d1d" opacity="0.73" d=" M 69.38 295.19 L 70.23 295.08 C 70.46 295.68 70.91 296.88 71.14 297.48 C 69.71 297.35 69.12 296.59 69.38 295.19 Z" />
<path fill="#8a1d1d" opacity="0.73" d=" M 173.35 296.01 L 174.05 295.30 C 173.18 296.08 172.35 296.90 171.51 297.71 C 170.66 297.25 169.81 296.78 168.96 296.33 L 169.90 296.76 C 171.06 297.66 172.60 297.19 173.35 296.01 Z" />
<path fill="#8a1d1d" opacity="0.73" d=" M 72.43 296.03 L 73.30 295.83 C 74.84 296.95 72.89 298.41 71.67 297.58 C 71.86 297.19 72.24 296.42 72.43 296.03 Z" />
<path fill="#8a1d1d" opacity="0.73" d=" M 31.33 308.71 C 32.43 309.35 33.94 310.65 33.00 312.05 C 32.63 311.84 31.89 311.42 31.52 311.21 C 31.47 310.59 31.38 309.33 31.33 308.71 Z" />
<path fill="#8a1d1d" opacity="0.73" d=" M 209.76 310.52 C 210.10 309.05 210.94 308.53 212.26 308.95 C 211.82 309.44 210.93 310.43 210.48 310.93 L 209.76 310.52 Z" />
<path fill="#8a1d1d" opacity="0.73" d=" M 33.00 312.05 C 34.57 311.63 35.23 312.21 34.97 313.80 C 34.44 313.57 33.37 313.10 32.84 312.87 L 33.00 312.05 Z" />
<path fill="#8a1d1d" opacity="0.73" d=" M 206.69 314.75 C 206.83 313.40 207.57 312.69 208.89 312.60 C 208.54 313.21 207.84 314.43 207.49 315.04 L 206.69 314.75 Z" />
<path fill="#8a1d1d" opacity="0.73" d=" M 160.65 314.66 C 161.45 312.99 163.85 314.29 162.97 315.89 C 162.39 315.58 161.23 314.97 160.65 314.66 Z" />
<path fill="#8a1d1d" opacity="0.73" d=" M 165.05 317.03 C 166.52 316.76 167.19 317.41 167.05 318.98 L 166.20 319.18 C 165.91 318.64 165.34 317.56 165.05 317.03 Z" />
<path fill="#8a1d1d" opacity="0.73" d=" M 203.62 318.76 C 203.88 317.42 204.67 316.77 206.00 316.82 C 205.59 317.40 204.78 318.55 204.38 319.13 L 203.62 318.76 Z" />
<path fill="#8a1d1d" opacity="0.73" d=" M 200.36 323.60 C 200.11 322.18 201.45 321.27 202.50 320.64 C 203.79 321.87 201.96 324.50 200.36 323.60 Z" />
<path fill="#8a1d1d" opacity="0.73" d=" M 171.17 322.23 C 172.85 322.16 174.85 323.46 174.04 325.36 C 172.84 324.71 171.82 323.75 170.97 322.71 L 171.17 322.23 Z" />
<path fill="#8a1d1d" opacity="0.73" d=" M 200.60 328.28 C 200.38 326.73 200.35 325.16 200.36 323.60 C 200.45 325.16 200.53 326.72 200.60 328.28 Z" />
<path fill="#8a1d1d" opacity="0.73" d=" M 126.31 326.31 C 126.91 324.66 130.08 325.21 129.74 327.07 C 128.55 327.06 127.39 326.79 126.31 326.31 Z" />
<path fill="#8a1d1d" opacity="0.73" d=" M 131.94 327.44 C 133.34 326.24 134.24 326.52 134.66 328.28 C 133.64 328.35 132.74 328.07 131.94 327.44 Z" />
<path fill="#8a1d1d" opacity="0.73" d=" M 178.06 329.57 C 179.55 329.63 180.18 330.38 179.92 331.83 L 179.12 331.99 C 178.85 331.38 178.32 330.18 178.06 329.57 Z" />
<path fill="#8a1d1d" opacity="0.73" d=" M 145.61 332.97 C 146.96 331.95 147.81 332.25 148.17 333.88 C 147.13 334.20 146.28 333.90 145.61 332.97 Z" />
<path fill="#8a1d1d" opacity="0.73" d=" M 149.23 333.61 C 150.84 333.79 151.23 334.57 150.38 335.95 C 149.27 335.46 148.88 334.68 149.23 333.61 Z" />
<path fill="#8a1d1d" opacity="0.73" d=" M 151.03 336.40 C 151.80 336.63 153.34 337.11 154.11 337.34 C 156.02 339.31 157.87 341.36 159.67 343.44 L 160.21 344.09 C 157.17 341.51 154.12 338.92 151.03 336.40 Z" />
<path fill="#8a1d1d" opacity="0.73" d=" M 205.73 339.46 C 207.72 338.64 209.04 342.13 207.24 343.10 C 206.61 341.94 206.09 340.72 205.73 339.46 Z" />
<path fill="#8a1d1d" opacity="0.73" d=" M 160.89 346.15 L 161.67 345.97 C 161.87 346.59 162.28 347.83 162.49 348.45 C 161.60 347.92 161.06 347.16 160.89 346.15 Z" />
<path fill="#8a1d1d" opacity="0.73" d=" M 211.24 354.33 C 212.36 353.15 215.07 354.66 214.49 356.24 C 213.22 356.12 211.51 355.85 211.24 354.33 Z" />
<path fill="#8a1d1d" opacity="0.73" d=" M 137.48 355.05 C 140.04 355.08 141.92 356.95 141.95 359.52 C 140.15 358.36 138.64 356.84 137.48 355.05 Z" />
<path fill="#8a1d1d" opacity="0.73" d=" M 217.30 356.68 C 218.01 354.91 221.62 355.07 221.56 357.19 C 220.13 357.15 218.70 356.98 217.30 356.68 Z" />
<path fill="#8a1d1d" opacity="0.73" d=" M 224.31 357.55 C 225.06 355.76 228.70 356.10 228.52 358.24 C 227.10 358.11 225.69 357.87 224.31 357.55 Z" />
<path fill="#8a1d1d" opacity="0.73" d=" M 231.18 358.75 C 231.44 357.21 234.39 356.89 234.59 358.61 C 233.58 359.39 232.28 359.08 231.18 358.75 Z" />
<path fill="#8a1d1d" opacity="0.73" d=" M 8.08 359.09 C 22.53 358.67 37.00 359.11 51.46 359.16 C 51.33 361.04 51.08 364.81 50.96 366.69 L 50.55 365.89 C 50.34 365.47 49.90 364.62 49.69 364.19 C 49.75 362.81 49.81 361.44 49.88 360.07 C 35.93 360.03 21.98 359.97 8.03 360.02 L 8.08 359.09 Z" />
<path fill="#8a1d1d" opacity="0.73" d=" M 168.69 363.28 C 170.45 363.59 170.78 364.47 169.68 365.93 C 168.98 365.18 168.65 364.29 168.69 363.28 Z" />
<path fill="#8a1d1d" opacity="0.73" d=" M 49.01 369.16 C 49.18 367.92 49.52 365.43 49.69 364.19 C 49.90 364.62 50.34 365.47 50.55 365.89 C 51.17 367.64 50.73 368.89 49.21 369.64 L 49.01 369.16 Z" />
<path fill="#8a1d1d" opacity="0.73" d=" M 170.59 367.61 C 170.75 368.69 170.89 369.78 171.00 370.87 C 171.21 373.99 171.43 377.18 171.50 380.33 C 171.23 380.80 170.69 381.73 170.42 382.19 L 170.04 382.66 C 170.28 377.65 170.47 372.62 170.59 367.61 Z" />
<path fill="#8a1d1d" opacity="0.73" d=" M 147.21 378.15 L 147.87 377.96 C 148.71 379.03 148.63 380.02 147.61 380.94 C 147.51 380.24 147.31 378.85 147.21 378.15 Z" />
<path fill="#8a1d1d" opacity="0.73" d=" M 49.22 380.78 L 49.29 380.45 C 51.47 381.65 51.39 385.29 49.54 386.77 C 49.39 384.75 49.29 382.75 49.22 380.78 Z" />
<path fill="#8a1d1d" opacity="0.73" d=" M 72.55 381.77 L 73.81 381.79 C 81.33 381.93 88.86 382.03 96.39 382.18 L 97.40 382.21 L 96.42 382.30 C 88.97 382.89 81.50 383.03 74.04 383.30 C 74.06 407.55 73.45 431.83 74.79 456.06 C 74.06 455.31 73.32 454.56 72.59 453.82 C 73.24 429.81 73.27 405.78 72.55 381.77 Z" />
<path fill="#8a1d1d" opacity="0.73" d=" M 192.79 383.96 L 193.35 383.30 C 194.49 384.17 194.62 385.18 193.75 386.35 C 193.51 385.75 193.03 384.56 192.79 383.96 Z" />
<path fill="#8a1d1d" opacity="0.73" d=" M 49.58 387.93 C 51.29 388.41 51.56 389.34 50.36 390.72 C 49.73 389.89 49.47 388.96 49.58 387.93 Z" />
<path fill="#8a1d1d" opacity="0.73" d=" M 11.58 392.80 C 11.28 391.07 13.39 390.94 13.96 392.32 C 13.59 392.54 12.85 392.97 12.48 393.19 L 11.58 392.80 Z" />
<path fill="#8a1d1d" opacity="0.73" d=" M 229.06 392.13 C 229.99 390.72 232.45 391.98 231.05 393.42 C 230.55 393.10 229.55 392.45 229.06 392.13 Z" />
<path fill="#8a1d1d" opacity="0.73" d=" M 101.65 393.38 C 102.94 392.84 103.90 393.23 104.54 394.56 C 103.18 394.98 102.22 394.59 101.65 393.38 Z" />
<path fill="#8a1d1d" opacity="0.73" d=" M 222.16 393.33 C 223.09 391.92 225.52 393.19 224.18 394.64 C 223.67 394.31 222.66 393.66 222.16 393.33 Z" />
<path fill="#8a1d1d" opacity="0.73" d=" M 51.73 396.30 C 53.46 396.74 53.72 397.65 52.52 399.02 C 51.87 398.22 51.60 397.32 51.73 396.30 Z" />
<path fill="#8a1d1d" opacity="0.73" d=" M 105.79 396.51 C 107.44 395.97 108.14 396.56 107.89 398.28 C 106.85 398.11 106.15 397.52 105.79 396.51 Z" />
<path fill="#8a1d1d" opacity="0.73" d=" M 135.20 398.24 C 134.97 396.52 135.68 395.94 137.33 396.49 C 136.95 397.50 136.24 398.08 135.20 398.24 Z" />
<path fill="#8a1d1d" opacity="0.73" d=" M 119.07 401.46 C 120.75 400.74 122.94 400.33 124.51 401.49 C 124.24 401.80 123.71 402.43 123.44 402.74 C 122.35 402.42 120.17 401.78 119.07 401.46 Z" />
<path fill="#8a1d1d" opacity="0.73" d=" M 161.73 403.78 C 161.91 402.49 162.66 401.40 163.81 400.79 C 165.30 401.99 163.38 404.83 161.73 403.78 Z" />
<path fill="#8a1d1d" opacity="0.73" d=" M 208.73 404.26 C 207.95 402.37 210.30 400.38 210.66 403.19 C 210.18 403.45 209.21 403.99 208.73 404.26 Z" />
<path fill="#8a1d1d" opacity="0.73" d=" M 159.64 406.06 C 159.70 404.67 160.39 403.91 161.73 403.78 C 161.39 404.42 160.70 405.68 160.36 406.32 L 159.64 406.06 Z" />
<path fill="#8a1d1d" opacity="0.73" d=" M 155.52 410.79 C 155.71 409.31 156.51 408.69 157.91 408.95 L 157.96 409.87 C 157.35 410.10 156.13 410.56 155.52 410.79 Z" />
<path fill="#8a1d1d" opacity="0.73" d=" M 57.82 411.15 C 59.59 411.05 60.11 411.82 59.37 413.47 C 58.49 412.93 57.97 412.15 57.82 411.15 Z" />
<path fill="#8a1d1d" opacity="0.73" d=" M 149.86 415.84 C 150.08 414.49 150.89 413.83 152.29 413.86 L 152.48 414.57 C 151.83 414.88 150.52 415.52 149.86 415.84 Z" />
<path fill="#8a1d1d" opacity="0.73" d=" M 96.09 417.97 C 96.81 418.41 97.54 418.87 98.26 419.32 C 98.20 419.84 98.07 420.89 98.01 421.42 C 96.73 435.37 97.66 449.48 95.68 463.38 C 96.41 448.25 95.94 433.10 96.09 417.97 Z" />
<path fill="#8a1d1d" opacity="0.73" d=" M 63.53 418.06 C 63.62 432.54 65.67 447.37 62.53 461.66 C 63.24 447.14 62.89 432.58 63.53 418.06 Z" />
<path fill="#8a1d1d" opacity="0.73" d=" M 178.37 420.25 L 178.97 420.41 C 178.44 422.27 177.11 423.70 175.32 424.44 C 175.44 423.76 175.68 422.39 175.80 421.70 C 176.89 421.61 177.75 421.13 178.37 420.25 Z" />
<path fill="#8a1d1d" opacity="0.73" d=" M 199.71 424.14 C 199.79 422.77 200.40 421.47 201.62 420.78 C 202.60 422.23 202.21 423.34 200.45 424.11 L 199.71 424.14 Z" />
<path fill="#8a1d1d" opacity="0.73" d=" M 117.06 424.27 C 120.54 424.63 124.02 424.92 127.51 425.22 C 124.16 425.04 120.82 425.00 117.49 424.72 L 117.06 424.27 Z" />
<path fill="#8a1d1d" opacity="0.73" d=" M 201.30 427.05 C 199.26 428.25 198.46 425.40 199.71 424.14 C 200.34 425.05 200.87 426.02 201.30 427.05 Z" />
<path fill="#8a1d1d" opacity="0.73" d=" M 168.42 430.81 C 169.31 429.70 170.41 428.78 171.46 427.84 C 169.64 429.47 167.80 431.09 165.97 432.72 L 166.34 432.62 C 167.33 432.40 168.02 431.79 168.42 430.81 Z" />
<path fill="#8a1d1d" opacity="0.73" d=" M 201.76 429.42 L 202.51 429.17 C 202.89 429.67 203.65 430.67 204.03 431.17 C 202.58 431.61 201.83 431.03 201.76 429.42 Z" />
<path fill="#8a1d1d" opacity="0.73" d=" M 36.18 434.10 C 36.65 433.72 37.58 432.95 38.05 432.56 C 38.67 433.93 38.18 434.69 36.58 434.85 L 36.18 434.10 Z" />
<path fill="#8a1d1d" opacity="0.73" d=" M 164.42 433.15 L 165.13 433.61 C 164.82 435.20 164.02 435.61 162.72 434.85 C 163.15 434.42 163.99 433.57 164.42 433.15 Z" />
<path fill="#8a1d1d" opacity="0.73" d=" M 204.70 433.45 L 205.36 433.16 C 205.77 433.64 206.59 434.62 206.99 435.11 C 205.83 435.17 205.07 434.62 204.70 433.45 Z" />
<path fill="#8a1d1d" opacity="0.73" d=" M 649.24 434.08 C 649.74 432.35 650.66 432.12 652.01 433.38 C 651.17 433.97 650.24 434.21 649.24 434.08 Z" />
<path fill="#8a1d1d" opacity="0.73" d=" M 654.01 433.40 C 655.39 432.23 656.29 432.51 656.73 434.23 C 655.70 434.35 654.79 434.07 654.01 433.40 Z" />
<path fill="#8a1d1d" opacity="0.73" d=" M 341.70 469.55 C 340.77 457.46 340.69 445.30 341.95 433.24 C 342.03 445.11 342.07 456.99 341.72 468.86 L 341.70 469.55 Z" />
<path fill="#8a1d1d" opacity="0.73" d=" M 429.14 432.93 C 430.33 445.00 430.25 457.16 429.24 469.25 C 428.95 457.14 429.05 445.03 429.14 432.93 Z" />
<path fill="#8a1d1d" opacity="0.73" d=" M 741.26 434.36 C 743.12 434.85 743.14 439.01 741.22 439.41 C 740.98 437.73 740.99 436.02 741.26 434.36 Z" />
<path fill="#8a1d1d" opacity="0.73" d=" M 877.16 432.93 C 878.31 445.10 878.19 457.35 877.29 469.54 L 877.26 468.85 C 876.92 456.88 877.05 444.90 877.16 432.93 Z" />
<path fill="#8a1d1d" opacity="0.73" d=" M 1011.70 469.57 C 1010.76 457.47 1010.69 445.31 1011.95 433.24 C 1012.03 445.12 1012.06 457.01 1011.73 468.89 L 1011.70 469.57 Z" />
<path fill="#8a1d1d" opacity="0.73" d=" M 579.75 434.24 L 580.80 434.24 C 580.87 442.66 580.61 451.08 580.23 459.49 C 580.00 451.07 579.87 442.65 579.75 434.24 Z" />
<path fill="#8a1d1d" opacity="0.73" d=" M 587.36 434.12 L 588.55 434.08 C 588.18 443.10 587.84 452.14 587.13 461.16 C 587.06 452.14 587.15 443.13 587.36 434.12 Z" />
<path fill="#8a1d1d" opacity="0.73" d=" M 32.53 437.96 C 33.11 437.90 34.28 437.78 34.87 437.72 C 34.54 439.26 33.72 439.64 32.40 438.83 L 32.53 437.96 Z" />
<path fill="#8a1d1d" opacity="0.73" d=" M 157.31 439.36 C 157.21 437.60 157.97 437.07 159.60 437.78 C 159.11 438.70 158.35 439.23 157.31 439.36 Z" />
<path fill="#8a1d1d" opacity="0.73" d=" M 207.66 437.44 L 208.33 437.15 C 208.75 437.62 209.59 438.56 210.01 439.03 C 208.83 439.14 208.05 438.61 207.66 437.44 Z" />
<path fill="#8a1d1d" opacity="0.73" d=" M 651.58 438.55 C 652.53 438.79 654.43 439.27 655.38 439.51 C 654.59 441.10 651.68 440.88 651.26 439.10 L 651.58 438.55 Z" />
<path fill="#8a1d1d" opacity="0.73" d=" M 491.20 439.74 L 491.21 440.25 L 491.21 440.76 C 491.18 447.96 491.07 455.16 491.00 462.37 C 492.61 462.27 494.23 462.19 495.84 462.05 L 496.54 462.00 C 494.84 462.26 491.44 462.78 489.75 463.04 C 490.03 455.26 490.08 447.45 491.20 439.74 Z" />
<path fill="#8a1d1d" opacity="0.73" d=" M 31.34 441.19 L 32.13 441.22 C 32.41 442.55 31.90 443.43 30.60 443.86 C 30.79 443.20 31.16 441.86 31.34 441.19 Z" />
<path fill="#8a1d1d" opacity="0.73" d=" M 210.40 441.35 L 211.13 441.18 C 211.43 441.74 212.03 442.88 212.32 443.44 C 211.23 443.18 210.59 442.49 210.40 441.35 Z" />
<path fill="#8a1d1d" opacity="0.73" d=" M 809.65 440.75 C 811.44 440.42 811.78 443.50 810.21 444.00 C 809.76 442.98 809.12 441.85 809.65 440.75 Z" />
<path fill="#8a1d1d" opacity="0.73" d=" M 210.38 447.54 C 209.89 445.66 211.19 443.66 213.22 443.72 C 213.37 444.00 213.66 444.57 213.81 444.85 C 212.66 445.63 211.53 446.52 210.78 447.71 L 210.38 447.54 Z" />
<path fill="#8a1d1d" opacity="0.73" d=" M 500.26 444.36 L 500.23 443.69 C 500.37 448.51 500.70 453.38 500.50 458.22 C 500.58 453.59 500.38 448.96 500.26 444.36 Z" />
<path fill="#8a1d1d" opacity="0.73" d=" M 507.32 443.79 C 507.51 449.60 507.65 455.42 507.52 461.24 C 507.56 455.42 507.49 449.60 507.32 443.79 Z" />
<path fill="#8a1d1d" opacity="0.73" d=" M 29.47 444.41 C 32.12 444.47 33.61 446.81 34.05 449.17 C 32.18 447.94 30.53 446.39 29.47 444.41 Z" />
<path fill="#8a1d1d" opacity="0.73" d=" M 133.29 447.37 C 133.03 445.53 136.15 445.08 136.74 446.70 C 135.66 447.22 134.47 447.44 133.29 447.37 Z" />
<path fill="#8a1d1d" opacity="0.73" d=" M 111.92 447.52 C 113.26 445.63 116.66 446.08 118.15 447.66 L 118.19 448.04 C 116.09 447.95 114.00 447.78 111.92 447.52 Z" />
<path fill="#8a1d1d" opacity="0.73" d=" M 123.80 447.61 C 125.47 445.98 128.75 445.79 130.38 447.54 C 128.18 447.70 125.97 447.85 123.78 447.98 L 123.80 447.61 Z" />
<path fill="#8a1d1d" opacity="0.73" d=" M 408.85 449.30 C 408.34 447.41 411.47 447.76 411.06 449.47 C 410.51 449.43 409.40 449.34 408.85 449.30 Z" />
<path fill="#8a1d1d" opacity="0.73" d=" M 172.12 455.37 C 169.44 453.27 174.10 452.09 172.85 455.21 L 172.12 455.37 Z" />
<path fill="#8a1d1d" opacity="0.73" d=" M 801.48 454.30 C 802.42 453.95 803.39 453.82 804.42 453.90 C 805.19 455.78 801.19 456.32 801.48 454.30 Z" />
<path fill="#8a1d1d" opacity="0.73" d=" M 175.04 455.61 C 176.40 455.82 177.09 456.61 177.10 457.99 C 176.51 457.59 175.35 456.80 174.76 456.41 L 175.04 455.61 Z" />
<path fill="#8a1d1d" opacity="0.73" d=" M 814.17 458.19 C 813.85 457.11 814.24 456.32 815.32 455.82 C 816.17 457.20 815.79 457.99 814.17 458.19 Z" />
<path fill="#8a1d1d" opacity="0.73" d=" M 179.08 458.84 C 180.43 459.01 181.12 459.77 181.13 461.12 C 180.54 460.74 179.36 459.99 178.76 459.62 L 179.08 458.84 Z" />
<path fill="#8a1d1d" opacity="0.73" d=" M 578.39 462.13 C 578.05 460.59 578.65 460.01 580.18 460.38 C 580.21 461.60 579.61 462.19 578.39 462.13 Z" />
<path fill="#8a1d1d" opacity="0.73" d=" M 801.91 460.64 C 802.62 458.92 803.99 458.91 806.02 460.63 C 805.40 462.19 802.56 462.16 801.91 460.64 Z" />
<path fill="#8a1d1d" opacity="0.73" d=" M 45.79 461.16 C 47.85 463.11 49.94 465.02 52.03 466.95 C 50.08 465.18 48.14 463.40 46.24 461.60 L 45.79 461.16 Z" />
<path fill="#8a1d1d" opacity="0.73" d=" M 58.10 463.83 C 57.87 462.21 58.52 461.61 60.05 462.02 C 59.76 462.54 59.19 463.56 58.90 464.07 L 58.10 463.83 Z" />
<path fill="#8a1d1d" opacity="0.73" d=" M 183.15 461.92 C 184.50 462.11 185.19 462.88 185.24 464.22 C 184.64 463.84 183.44 463.08 182.84 462.70 L 183.15 461.92 Z" />
<path fill="#8a1d1d" opacity="0.73" d=" M 188.87 468.29 C 191.16 466.13 193.45 463.99 195.69 461.81 L 195.24 462.26 C 193.16 464.31 191.02 466.30 188.87 468.29 Z" />
<path fill="#8a1d1d" opacity="0.73" d=" M 1018.07 461.76 L 1019.03 461.84 C 1023.39 462.26 1027.84 462.56 1032.22 463.27 C 1027.50 462.99 1022.74 462.87 1018.07 462.71 L 1018.07 461.76 Z" />
<path fill="#8a1d1d" opacity="0.73" d=" M 938.30 463.80 C 942.49 463.37 946.70 463.60 950.95 463.51 C 946.70 463.63 942.50 463.76 938.30 463.80 Z" />
<path fill="#8a1d1d" opacity="0.73" d=" M 54.10 466.90 C 53.82 465.31 54.45 464.66 55.97 464.94 C 55.71 465.48 55.19 466.55 54.93 467.09 L 54.10 466.90 Z" />
<path fill="#8a1d1d" opacity="0.73" d=" M 187.32 465.05 C 188.92 464.90 189.55 465.56 189.21 467.04 C 188.68 466.73 187.60 466.12 187.07 465.81 L 187.32 465.05 Z" />
<path fill="#8a1d1d" opacity="0.73" d=" M 582.76 466.52 C 583.12 465.46 583.84 464.90 584.91 464.85 C 585.08 466.52 584.36 467.08 582.76 466.52 Z" />
<path fill="#8a1d1d" opacity="0.73" d=" M 661.83 466.81 C 662.17 465.84 662.83 465.18 663.80 464.82 C 664.22 466.56 663.56 467.22 661.83 466.81 Z" />
<path fill="#8a1d1d" opacity="0.73" d=" M 139.83 474.41 C 139.60 473.06 139.67 471.65 140.47 470.51 C 140.66 470.85 141.05 471.52 141.25 471.86 C 141.04 472.45 140.63 473.63 140.42 474.23 L 139.83 474.41 Z" />
<path fill="#8a1d1d" opacity="0.73" d=" M 138.92 481.02 C 138.79 479.31 139.02 477.63 139.51 476.01 C 139.76 476.63 140.25 477.89 140.50 478.51 C 140.25 479.09 139.74 480.24 139.49 480.82 L 138.92 481.02 Z" />
<path fill="#8a1d1d" opacity="0.73" d=" M 138.21 488.31 C 137.82 486.78 138.16 485.21 138.49 483.71 L 138.95 484.09 C 139.82 485.25 140.01 487.98 138.21 488.31 Z" />
</g>
<g id="#240f0e2d">
<path fill="#240f0e" opacity="0.18" d=" M 103.37 268.17 C 102.17 267.71 101.81 264.79 103.39 264.90 C 103.63 265.54 104.10 266.81 104.34 267.45 L 104.03 268.12 L 103.37 268.17 Z" />
<path fill="#240f0e" opacity="0.18" d=" M 102.24 277.17 C 101.06 275.35 101.86 272.40 103.14 270.89 C 103.16 271.61 103.21 273.05 103.23 273.77 C 103.14 274.55 102.96 276.12 102.87 276.90 L 102.24 277.17 Z" />
<path fill="#240f0e" opacity="0.18" d=" M 101.54 280.69 C 100.42 279.52 100.50 278.73 101.79 278.33 C 101.99 278.76 102.38 279.61 102.58 280.04 L 102.25 280.73 L 101.54 280.69 Z" />
<path fill="#240f0e" opacity="0.18" d=" M 52.34 282.65 C 52.96 280.49 56.46 282.92 54.96 284.46 C 54.18 283.71 53.31 283.10 52.34 282.65 Z" />
<path fill="#240f0e" opacity="0.18" d=" M 188.07 284.07 C 187.00 282.34 190.71 280.83 191.12 282.83 C 190.09 283.21 189.07 283.63 188.07 284.07 Z" />
<path fill="#240f0e" opacity="0.18" d=" M 30.43 305.34 C 35.75 296.82 42.88 289.23 51.37 283.82 C 50.57 284.86 49.77 285.91 48.94 286.94 C 42.88 293.18 36.04 298.68 30.43 305.34 Z" />
<path fill="#240f0e" opacity="0.18" d=" M 286.40 287.59 C 284.47 286.53 287.05 283.31 287.70 285.80 C 287.49 286.35 287.08 287.44 286.87 287.99 L 286.40 287.59 Z" />
<path fill="#240f0e" opacity="0.18" d=" M 509.57 287.78 C 507.51 287.34 509.18 283.67 510.51 285.56 C 510.44 286.10 510.29 287.16 510.22 287.70 L 509.57 287.78 Z" />
<path fill="#240f0e" opacity="0.18" d=" M 894.99 286.02 C 894.72 283.77 898.52 284.75 897.08 286.53 C 896.62 286.60 895.71 286.73 895.25 286.79 L 894.99 286.02 Z" />
<path fill="#240f0e" opacity="0.18" d=" M 1060.25 285.35 C 1061.89 283.71 1063.25 287.68 1061.16 287.98 C 1060.71 287.14 1060.41 286.27 1060.25 285.35 Z" />
<path fill="#240f0e" opacity="0.18" d=" M 193.12 286.11 C 201.24 290.55 207.97 297.34 212.57 305.36 C 206.54 298.51 200.06 292.04 193.12 286.11 Z" />
<path fill="#240f0e" opacity="0.18" d=" M 728.69 287.70 L 728.69 288.40 C 729.23 322.66 728.89 356.93 729.02 391.19 C 727.37 374.51 728.05 357.73 728.00 341.00 C 728.14 323.23 727.41 305.43 728.69 287.70 Z" />
<path fill="#240f0e" opacity="0.18" d=" M 751.12 287.67 C 752.78 309.41 751.73 331.22 752.01 353.00 C 751.94 366.22 752.57 379.51 751.25 392.69 L 751.22 391.99 C 750.69 357.22 751.07 322.44 751.12 287.67 Z" />
<path fill="#240f0e" opacity="0.18" d=" M 66.08 291.73 C 67.77 291.93 68.10 292.75 67.08 294.21 L 66.37 294.06 C 66.29 293.47 66.15 292.31 66.08 291.73 Z" />
<path fill="#240f0e" opacity="0.18" d=" M 175.91 294.16 C 174.84 292.74 175.14 291.91 176.83 291.67 C 176.78 292.25 176.67 293.42 176.62 294.00 L 175.91 294.16 Z" />
<path fill="#240f0e" opacity="0.18" d=" M 462.16 294.34 C 463.95 292.93 467.06 296.04 465.66 297.84 L 465.04 297.88 C 464.69 296.47 463.52 295.30 462.12 294.96 L 462.16 294.34 Z" />
<path fill="#240f0e" opacity="0.18" d=" M 70.23 295.08 C 71.34 294.21 72.08 294.52 72.43 296.03 C 72.24 296.42 71.86 297.19 71.67 297.58 L 71.14 297.48 C 70.91 296.88 70.46 295.68 70.23 295.08 Z" />
<path fill="#240f0e" opacity="0.18" d=" M 169.90 296.76 C 170.79 295.35 171.94 295.10 173.35 296.01 C 172.60 297.19 171.06 297.66 169.90 296.76 Z" />
<path fill="#240f0e" opacity="0.18" d=" M 797.40 300.28 C 795.69 299.34 797.03 296.10 798.90 296.93 C 798.87 298.21 798.32 299.40 797.40 300.28 Z" />
<path fill="#240f0e" opacity="0.18" d=" M 114.61 303.00 C 119.52 303.44 124.43 303.62 129.35 303.89 C 124.38 303.86 119.43 303.87 114.46 303.81 L 114.61 303.00 Z" />
<path fill="#240f0e" opacity="0.18" d=" M 108.30 304.48 C 109.42 304.02 110.59 303.73 111.79 303.62 C 112.11 305.48 108.95 306.15 108.30 304.48 Z" />
<path fill="#240f0e" opacity="0.18" d=" M 132.23 303.87 C 133.24 303.68 134.17 303.90 135.01 304.52 C 133.69 305.77 132.76 305.56 132.23 303.87 Z" />
<path fill="#240f0e" opacity="0.18" d=" M 895.07 304.72 L 895.25 304.02 C 895.71 304.36 896.65 305.05 897.12 305.39 C 896.15 306.53 895.47 306.30 895.07 304.72 Z" />
<path fill="#240f0e" opacity="0.18" d=" M 103.13 305.52 C 103.96 304.89 104.88 304.66 105.90 304.82 C 105.39 306.52 104.47 306.75 103.13 305.52 Z" />
<path fill="#240f0e" opacity="0.18" d=" M 137.12 304.87 C 138.14 304.71 139.06 304.94 139.88 305.56 C 138.55 306.80 137.62 306.57 137.12 304.87 Z" />
<path fill="#240f0e" opacity="0.18" d=" M 30.66 309.08 L 31.33 308.71 C 31.38 309.33 31.47 310.59 31.52 311.21 C 30.01 311.35 29.72 310.64 30.66 309.08 Z" />
<path fill="#240f0e" opacity="0.18" d=" M 32.84 312.87 C 33.37 313.10 34.44 313.57 34.97 313.80 L 34.80 314.54 C 33.15 315.07 32.49 314.52 32.84 312.87 Z" />
<path fill="#240f0e" opacity="0.18" d=" M 158.44 313.22 C 159.61 313.49 160.11 314.20 159.93 315.36 C 158.31 315.40 157.82 314.68 158.44 313.22 Z" />
<path fill="#240f0e" opacity="0.18" d=" M 1045.94 314.61 C 1046.49 314.61 1047.60 314.59 1048.16 314.59 C 1048.01 314.99 1047.71 315.78 1047.56 316.18 C 1047.16 315.97 1046.34 315.55 1045.93 315.34 L 1045.94 314.61 Z" />
<path fill="#240f0e" opacity="0.18" d=" M 35.68 315.99 C 51.08 316.03 66.49 315.92 81.89 316.34 C 66.51 317.30 51.03 317.54 35.68 315.99 Z" />
<path fill="#240f0e" opacity="0.18" d=" M 164.34 317.17 L 165.05 317.03 C 165.34 317.56 165.91 318.64 166.20 319.18 C 164.54 319.54 163.92 318.87 164.34 317.17 Z" />
<path fill="#240f0e" opacity="0.18" d=" M 170.97 322.71 C 171.82 323.75 172.84 324.71 174.04 325.36 L 173.92 325.88 C 172.19 326.88 169.91 324.30 170.97 322.71 Z" />
<path fill="#240f0e" opacity="0.18" d=" M 42.76 328.17 C 40.86 327.98 41.54 324.90 43.30 325.14 L 44.01 325.27 C 43.99 326.38 43.57 327.35 42.76 328.17 Z" />
<path fill="#240f0e" opacity="0.18" d=" M 39.43 334.01 C 37.43 332.86 39.20 329.10 41.33 330.33 C 40.83 331.62 40.19 332.85 39.43 334.01 Z" />
<path fill="#240f0e" opacity="0.18" d=" M 177.49 329.83 L 178.06 329.57 C 178.32 330.18 178.85 331.38 179.12 331.99 C 177.48 332.32 176.94 331.60 177.49 329.83 Z" />
<path fill="#240f0e" opacity="0.18" d=" M 180.03 334.14 L 180.73 333.87 C 180.95 334.39 181.40 335.43 181.63 335.94 C 180.04 336.41 179.51 335.80 180.03 334.14 Z" />
<path fill="#240f0e" opacity="0.18" d=" M 154.11 337.34 C 156.05 339.29 157.93 341.31 159.67 343.44 C 157.87 341.36 156.02 339.31 154.11 337.34 Z" />
<path fill="#240f0e" opacity="0.18" d=" M 183.41 338.80 C 184.29 339.33 184.80 340.11 184.95 341.12 C 183.17 341.21 182.66 340.44 183.41 338.80 Z" />
<path fill="#240f0e" opacity="0.18" d=" M 124.50 349.67 C 125.67 349.55 126.83 349.88 127.78 350.57 C 127.12 352.12 124.10 351.42 124.50 349.67 Z" />
<path fill="#240f0e" opacity="0.18" d=" M 136.79 354.78 L 137.48 355.05 C 138.64 356.84 140.15 358.36 141.95 359.52 L 142.22 360.21 C 140.01 358.84 138.16 356.99 136.79 354.78 Z" />
<path fill="#240f0e" opacity="0.18" d=" M 460.66 359.86 C 462.37 358.45 464.04 356.99 465.67 355.49 C 465.20 357.07 464.71 358.65 464.22 360.22 C 462.82 360.28 461.43 360.33 460.04 360.37 L 460.66 359.86 Z" />
<path fill="#240f0e" opacity="0.18" d=" M 6.94 358.05 C 22.10 357.94 37.32 357.34 52.41 359.16 L 51.46 359.16 C 37.00 359.11 22.53 358.67 8.08 359.09 L 8.03 360.02 C 7.81 371.42 8.05 382.83 8.38 394.23 C 6.56 382.25 6.90 370.12 6.94 358.05 Z" />
<path fill="#240f0e" opacity="0.18" d=" M 192.41 364.05 L 193.19 364.08 C 193.20 364.65 193.22 365.77 193.23 366.34 C 191.61 366.16 191.34 365.40 192.41 364.05 Z" />
<path fill="#240f0e" opacity="0.18" d=" M 817.57 369.24 C 818.42 366.84 822.32 369.57 820.40 371.35 L 819.90 371.33 C 819.61 370.06 818.83 369.36 817.57 369.24 Z" />
<path fill="#240f0e" opacity="0.18" d=" M 146.57 369.54 C 147.21 370.38 147.47 371.34 147.33 372.41 C 145.64 371.82 145.39 370.87 146.57 369.54 Z" />
<path fill="#240f0e" opacity="0.18" d=" M 171.00 370.87 C 171.27 373.99 171.58 377.18 171.50 380.33 C 171.43 377.18 171.21 373.99 171.00 370.87 Z" />
<path fill="#240f0e" opacity="0.18" d=" M 832.29 375.11 C 831.72 373.24 835.37 373.47 834.59 375.26 C 834.02 375.22 832.87 375.15 832.29 375.11 Z" />
<path fill="#240f0e" opacity="0.18" d=" M 838.66 375.15 C 838.83 373.56 839.61 373.31 840.99 374.43 L 841.02 375.15 C 840.43 375.15 839.25 375.15 838.66 375.15 Z" />
<path fill="#240f0e" opacity="0.18" d=" M 146.47 383.19 C 145.16 382.00 145.40 378.45 147.21 378.15 C 147.31 378.85 147.51 380.24 147.61 380.94 C 147.24 381.69 146.86 382.44 146.47 383.19 Z" />
<path fill="#240f0e" opacity="0.18" d=" M 74.03 380.64 C 81.48 380.96 88.98 381.12 96.39 382.18 C 88.86 382.03 81.33 381.93 73.81 381.79 L 74.03 380.64 Z" />
<path fill="#240f0e" opacity="0.18" d=" M 682.33 380.99 L 682.93 380.42 C 682.13 383.14 680.13 385.13 677.35 385.78 C 679.02 384.20 680.67 382.59 682.33 380.99 Z" />
<path fill="#240f0e" opacity="0.18" d=" M 72.57 454.47 C 71.75 430.25 71.52 405.98 72.55 381.77 C 73.27 405.78 73.24 429.81 72.59 453.82 L 72.57 454.47 Z" />
<path fill="#240f0e" opacity="0.18" d=" M 192.73 386.93 C 191.36 386.65 191.13 383.49 192.79 383.96 C 193.03 384.56 193.51 385.75 193.75 386.35 L 193.45 386.90 L 192.73 386.93 Z" />
<path fill="#240f0e" opacity="0.18" d=" M 308.04 391.75 L 308.65 392.22 C 309.28 393.87 308.85 394.46 307.37 394.01 C 307.54 393.45 307.88 392.31 308.04 391.75 Z" />
<path fill="#240f0e" opacity="0.18" d=" M 450.87 391.73 C 451.71 392.53 451.83 393.39 451.23 394.30 C 449.71 393.66 449.59 392.81 450.87 391.73 Z" />
<path fill="#240f0e" opacity="0.18" d=" M 922.23 392.56 L 922.67 391.93 C 923.03 392.41 923.76 393.38 924.12 393.87 C 922.78 394.83 922.15 394.39 922.23 392.56 Z" />
<path fill="#240f0e" opacity="0.18" d=" M 1071.75 391.74 C 1072.63 392.50 1072.80 393.35 1072.27 394.29 C 1070.70 393.75 1070.53 392.90 1071.75 391.74 Z" />
<path fill="#240f0e" opacity="0.18" d=" M 12.48 393.19 C 12.85 392.97 13.59 392.54 13.96 392.32 C 14.29 392.66 14.96 393.32 15.29 393.66 C 14.95 395.01 12.02 394.75 12.48 393.19 Z" />
<path fill="#240f0e" opacity="0.18" d=" M 138.30 395.09 C 137.93 393.29 138.64 392.66 140.42 393.21 C 139.93 394.08 139.22 394.70 138.30 395.09 Z" />
<path fill="#240f0e" opacity="0.18" d=" M 227.53 393.09 C 227.91 392.85 228.67 392.37 229.06 392.13 C 229.55 392.45 230.55 393.10 231.05 393.42 C 231.11 395.16 227.63 394.66 227.53 393.09 Z" />
<path fill="#240f0e" opacity="0.18" d=" M 19.36 393.99 C 20.54 393.86 21.73 394.01 22.87 394.34 C 22.46 396.04 19.22 395.88 19.36 393.99 Z" />
<path fill="#240f0e" opacity="0.18" d=" M 220.59 394.34 C 220.98 394.09 221.76 393.58 222.16 393.33 C 222.66 393.66 223.67 394.31 224.18 394.64 C 224.14 396.30 220.77 395.86 220.59 394.34 Z" />
<path fill="#240f0e" opacity="0.18" d=" M 25.79 394.66 C 26.88 394.65 27.94 394.80 28.97 395.11 L 28.83 395.63 C 28.07 396.89 25.11 396.31 25.79 394.66 Z" />
<path fill="#240f0e" opacity="0.18" d=" M 214.00 395.12 C 215.04 394.81 216.12 394.67 217.22 394.69 C 217.86 396.36 214.89 396.86 214.13 395.63 L 214.00 395.12 Z" />
<path fill="#240f0e" opacity="0.18" d=" M 826.78 394.93 C 827.39 394.94 828.61 394.96 829.22 394.97 L 829.28 395.55 C 827.91 396.72 827.07 396.52 826.78 394.93 Z" />
<path fill="#240f0e" opacity="0.18" d=" M 836.73 395.38 C 837.63 394.88 838.59 394.75 839.61 394.99 C 838.89 396.62 837.93 396.75 836.73 395.38 Z" />
<path fill="#240f0e" opacity="0.18" d=" M 119.17 400.83 C 120.20 398.72 124.30 399.07 124.51 401.49 C 122.94 400.33 120.75 400.74 119.07 401.46 L 119.17 400.83 Z" />
<path fill="#240f0e" opacity="0.18" d=" M 155.52 410.79 C 156.13 410.56 157.35 410.10 157.96 409.87 C 158.22 411.51 157.48 412.01 155.73 411.36 L 155.52 410.79 Z" />
<path fill="#240f0e" opacity="0.18" d=" M 180.62 415.70 C 179.70 414.16 182.29 412.38 183.44 413.71 C 183.07 414.89 181.98 416.10 180.62 415.70 Z" />
<path fill="#240f0e" opacity="0.18" d=" M 179.31 418.04 C 178.44 416.34 178.88 415.56 180.62 415.70 C 180.48 416.35 180.21 417.65 180.07 418.30 L 179.31 418.04 Z" />
<path fill="#240f0e" opacity="0.18" d=" M 175.80 421.70 C 175.89 419.99 176.75 419.51 178.37 420.25 C 177.75 421.13 176.89 421.61 175.80 421.70 Z" />
<path fill="#240f0e" opacity="0.18" d=" M 98.01 421.42 L 98.06 420.75 C 97.98 435.41 98.04 450.08 97.96 464.75 C 96.92 465.03 95.89 465.32 94.86 465.62 L 95.16 464.85 C 95.29 464.48 95.55 463.75 95.68 463.38 C 97.66 449.48 96.73 435.37 98.01 421.42 Z" />
<path fill="#240f0e" opacity="0.18" d=" M 111.73 424.00 C 112.32 424.01 113.50 424.04 114.09 424.05 L 114.16 424.73 C 112.79 425.84 111.98 425.59 111.73 424.00 Z" />
<path fill="#240f0e" opacity="0.18" d=" M 129.09 424.61 C 129.91 423.99 130.83 423.76 131.84 423.94 C 131.33 425.63 130.41 425.86 129.09 424.61 Z" />
<path fill="#240f0e" opacity="0.18" d=" M 199.71 424.14 L 200.45 424.11 C 202.11 424.52 202.60 425.45 201.93 426.90 L 201.30 427.05 C 200.87 426.02 200.34 425.05 199.71 424.14 Z" />
<path fill="#240f0e" opacity="0.18" d=" M 117.49 424.72 C 120.82 425.00 124.16 425.04 127.51 425.22 C 124.16 425.27 120.79 425.40 117.49 424.72 Z" />
<path fill="#240f0e" opacity="0.18" d=" M 39.35 430.12 C 38.54 428.41 38.99 427.64 40.70 427.81 C 40.55 428.46 40.26 429.77 40.11 430.42 L 39.35 430.12 Z" />
<path fill="#240f0e" opacity="0.18" d=" M 202.51 429.17 C 204.07 428.52 204.78 429.09 204.64 430.87 L 204.03 431.17 C 203.65 430.67 202.89 429.67 202.51 429.17 Z" />
<path fill="#240f0e" opacity="0.18" d=" M 166.34 432.62 C 166.03 430.88 166.72 430.27 168.42 430.81 C 168.02 431.79 167.33 432.40 166.34 432.62 Z" />
<path fill="#240f0e" opacity="0.18" d=" M 36.18 434.10 C 35.45 432.57 35.96 431.85 37.73 431.93 L 38.05 432.56 C 37.58 432.95 36.65 433.72 36.18 434.10 Z" />
<path fill="#240f0e" opacity="0.18" d=" M 162.13 434.45 C 162.20 432.69 162.96 432.25 164.42 433.15 C 163.99 433.57 163.15 434.42 162.72 434.85 L 162.13 434.45 Z" />
<path fill="#240f0e" opacity="0.18" d=" M 716.69 438.55 C 714.81 437.90 715.25 433.72 717.51 433.56 L 717.82 433.58 C 717.53 435.25 717.16 436.91 716.69 438.55 Z" />
<path fill="#240f0e" opacity="0.18" d=" M 948.63 433.11 C 950.53 432.98 951.01 436.20 949.20 436.62 C 948.72 435.53 948.31 434.41 948.11 433.25 L 948.63 433.11 Z" />
<path fill="#240f0e" opacity="0.18" d=" M 560.74 459.21 C 559.97 450.74 559.92 442.19 561.44 433.81 C 561.15 442.26 560.67 450.73 560.74 459.21 Z" />
<path fill="#240f0e" opacity="0.18" d=" M 792.95 467.98 C 793.11 456.46 792.36 444.86 793.75 433.40 C 793.96 444.93 794.00 456.47 794.04 468.01 L 792.95 467.98 Z" />
<path fill="#240f0e" opacity="0.18" d=" M 642.18 437.77 C 640.24 436.58 643.37 433.69 644.19 435.92 C 643.53 436.55 642.86 437.17 642.18 437.77 Z" />
<path fill="#240f0e" opacity="0.18" d=" M 812.87 435.85 C 813.19 433.74 816.41 435.85 814.70 437.06 C 814.24 436.76 813.33 436.15 812.87 435.85 Z" />
<path fill="#240f0e" opacity="0.18" d=" M 32.53 437.96 C 32.78 436.26 33.62 435.95 35.04 437.01 L 34.87 437.72 C 34.28 437.78 33.11 437.90 32.53 437.96 Z" />
<path fill="#240f0e" opacity="0.18" d=" M 491.21 440.25 C 492.10 438.86 495.38 439.30 495.11 441.17 C 493.80 441.10 492.49 441.02 491.21 440.76 L 491.21 440.25 Z" />
<path fill="#240f0e" opacity="0.18" d=" M 719.28 439.24 C 720.67 439.51 723.43 440.04 724.82 440.30 L 724.82 440.67 C 723.31 441.89 719.15 441.52 719.28 439.24 Z" />
<path fill="#240f0e" opacity="0.18" d=" M 733.23 440.55 C 735.87 440.12 738.53 439.74 741.22 439.41 C 738.59 440.32 735.86 440.94 733.14 441.47 L 733.23 440.55 Z" />
<path fill="#240f0e" opacity="0.18" d=" M 801.61 440.92 C 801.43 438.85 805.72 439.05 805.28 441.11 C 804.04 441.25 802.80 441.20 801.61 440.92 Z" />
<path fill="#240f0e" opacity="0.18" d=" M 29.17 443.97 C 28.35 442.73 30.05 439.91 31.34 441.19 C 31.16 441.86 30.79 443.20 30.60 443.86 C 30.32 444.00 29.75 444.27 29.47 444.41 L 29.17 443.97 Z" />
<path fill="#240f0e" opacity="0.18" d=" M 29.17 443.97 L 29.47 444.41 C 30.53 446.39 32.18 447.94 34.05 449.17 L 34.56 449.77 C 31.60 449.14 29.62 446.95 29.17 443.97 Z" />
<path fill="#240f0e" opacity="0.18" d=" M 210.78 447.71 C 211.53 446.52 212.66 445.63 213.81 444.85 C 214.90 446.48 212.36 448.80 210.78 447.71 Z" />
<path fill="#240f0e" opacity="0.18" d=" M 408.85 449.30 C 409.40 449.34 410.51 449.43 411.06 449.47 L 411.21 450.39 C 410.72 456.34 410.06 462.30 409.27 468.23 C 409.04 461.92 408.88 455.60 408.85 449.30 Z" />
<path fill="#240f0e" opacity="0.18" d=" M 642.09 448.92 C 643.02 449.25 643.73 449.85 644.22 450.73 C 642.46 451.32 641.75 450.72 642.09 448.92 Z" />
<path fill="#240f0e" opacity="0.18" d=" M 164.77 457.45 C 165.33 456.55 166.13 456.08 167.16 456.05 C 167.15 457.80 166.35 458.27 164.77 457.45 Z" />
<path fill="#240f0e" opacity="0.18" d=" M 568.66 460.33 C 570.42 459.84 571.11 460.49 570.72 462.28 C 569.29 462.41 568.60 461.76 568.66 460.33 Z" />
<path fill="#240f0e" opacity="0.18" d=" M 46.24 461.60 C 48.14 463.40 50.08 465.18 52.03 466.95 L 52.61 467.46 C 50.21 465.82 48.06 463.85 46.24 461.60 Z" />
<path fill="#240f0e" opacity="0.18" d=" M 60.05 462.02 L 60.77 462.26 C 61.13 463.95 60.51 464.55 58.90 464.07 C 59.19 463.56 59.76 462.54 60.05 462.02 Z" />
<path fill="#240f0e" opacity="0.18" d=" M 651.80 463.06 C 651.41 461.23 655.38 460.89 655.34 462.78 C 654.39 463.72 652.93 463.27 651.80 463.06 Z" />
<path fill="#240f0e" opacity="0.18" d=" M 188.87 468.29 C 191.02 466.30 193.16 464.31 195.24 462.26 C 194.27 464.58 193.27 466.90 192.27 469.21 C 191.42 468.98 189.72 468.52 188.87 468.29 Z" />
<path fill="#240f0e" opacity="0.18" d=" M 1033.20 463.34 C 1035.12 463.38 1034.95 467.53 1032.99 467.20 C 1032.78 465.91 1032.86 464.59 1033.20 463.34 Z" />
<path fill="#240f0e" opacity="0.18" d=" M 502.96 466.68 C 503.81 465.72 504.72 464.81 505.68 463.97 C 507.21 465.53 504.50 468.21 502.96 466.68 Z" />
<path fill="#240f0e" opacity="0.18" d=" M 55.97 464.94 L 56.70 465.09 C 57.17 466.77 56.58 467.43 54.93 467.09 C 55.19 466.55 55.71 465.48 55.97 464.94 Z" />
<path fill="#240f0e" opacity="0.18" d=" M 143.07 466.04 C 143.57 465.06 144.38 464.64 145.51 464.78 C 145.35 466.44 144.54 466.85 143.07 466.04 Z" />
<path fill="#240f0e" opacity="0.18" d=" M 187.07 465.81 C 187.60 466.12 188.68 466.73 189.21 467.04 L 189.03 467.70 C 187.29 468.07 186.63 467.45 187.07 465.81 Z" />
</g>
<g id="#d7d7d7d7">
<path fill="#d7d7d7" opacity="0.84" d=" M 826.18 285.08 C 826.69 283.36 827.61 283.14 828.94 284.41 C 828.10 285.00 827.18 285.22 826.18 285.08 Z" />
<path fill="#d7d7d7" opacity="0.84" d=" M 836.22 284.57 C 836.65 282.86 839.89 283.12 839.67 285.02 C 838.49 285.13 837.32 284.93 836.22 284.57 Z" />
<path fill="#d7d7d7" opacity="0.84" d=" M 286.40 287.59 L 286.87 287.99 C 286.63 322.68 287.99 357.43 286.23 392.09 L 286.04 392.78 C 286.20 357.71 285.49 322.64 286.40 287.59 Z" />
<path fill="#d7d7d7" opacity="0.84" d=" M 509.57 287.78 L 510.22 287.70 C 509.04 322.48 511.30 357.33 509.23 392.09 L 509.04 392.78 C 509.31 357.78 508.26 322.75 509.57 287.78 Z" />
<path fill="#d7d7d7" opacity="0.84" d=" M 858.59 289.10 C 859.64 287.83 860.51 287.94 861.19 289.43 C 860.27 290.06 859.41 289.95 858.59 289.10 Z" />
<path fill="#d7d7d7" opacity="0.84" d=" M 462.12 294.96 C 463.52 295.30 464.69 296.47 465.04 297.88 C 463.26 298.39 461.60 296.73 462.12 294.96 Z" />
<path fill="#d7d7d7" opacity="0.84" d=" M 944.11 391.75 C 944.08 363.03 943.51 334.31 944.53 305.61 C 945.29 334.47 945.23 363.37 944.70 392.23 L 944.11 391.75 Z" />
<path fill="#d7d7d7" opacity="0.84" d=" M 660.92 309.38 C 660.40 307.24 664.39 307.71 663.43 309.68 C 662.80 309.60 661.55 309.46 660.92 309.38 Z" />
<path fill="#d7d7d7" opacity="0.84" d=" M 360.99 319.48 L 361.55 319.91 C 362.16 324.69 362.21 329.66 361.22 334.40 L 361.15 334.71 C 361.23 329.63 361.07 324.54 360.99 319.48 Z" />
<path fill="#d7d7d7" opacity="0.84" d=" M 668.14 322.26 L 668.13 321.58 C 669.23 333.42 669.29 345.36 668.17 357.20 C 668.35 345.56 668.18 333.90 668.14 322.26 Z" />
<path fill="#d7d7d7" opacity="0.84" d=" M 460.66 359.86 C 462.49 358.24 464.33 356.62 466.18 355.02 L 465.67 355.49 C 464.04 356.99 462.37 358.45 460.66 359.86 Z" />
<path fill="#d7d7d7" opacity="0.84" d=" M 308.12 368.26 C 313.04 367.98 317.95 368.04 322.89 367.90 L 322.44 368.23 C 318.01 368.91 313.51 368.88 309.05 369.15 L 308.07 369.19 L 308.12 368.26 Z" />
<path fill="#d7d7d7" opacity="0.84" d=" M 420.54 368.72 C 426.25 368.44 431.97 368.20 437.71 368.10 L 437.34 368.14 C 431.75 368.65 426.15 368.97 420.54 368.72 Z" />
<path fill="#d7d7d7" opacity="0.84" d=" M 817.57 369.24 C 818.83 369.36 819.61 370.06 819.90 371.33 C 818.39 371.45 817.62 370.76 817.57 369.24 Z" />
<path fill="#d7d7d7" opacity="0.84" d=" M 676.90 386.19 C 678.65 384.40 680.46 382.66 682.33 380.99 C 680.67 382.59 679.02 384.20 677.35 385.78 L 676.90 386.19 Z" />
<path fill="#d7d7d7" opacity="0.84" d=" M 922.67 391.93 C 924.25 391.45 924.98 392.02 924.87 393.63 L 924.12 393.87 C 923.76 393.38 923.03 392.41 922.67 391.93 Z" />
<path fill="#d7d7d7" opacity="0.84" d=" M 652.31 393.60 C 653.10 392.95 654.00 392.68 655.01 392.80 L 655.01 393.61 C 654.33 393.61 652.99 393.60 652.31 393.60 Z" />
</g>
<g id="#ffffffff">
<path fill="#ffffff" opacity="1.00" d=" M 828.94 284.41 C 830.76 284.45 834.40 284.53 836.22 284.57 C 837.32 284.93 838.49 285.13 839.67 285.02 C 846.04 285.28 853.11 285.38 858.59 289.10 C 859.41 289.95 860.27 290.06 861.19 289.43 C 860.67 295.50 859.75 301.52 858.85 307.55 C 852.89 307.25 847.18 305.31 841.26 304.77 C 838.02 304.59 834.89 304.37 831.69 304.64 C 822.51 306.24 813.81 312.98 812.74 322.71 C 811.68 334.88 811.57 347.17 812.72 359.35 C 813.39 363.04 815.87 365.99 817.57 369.24 C 817.62 370.76 818.39 371.45 819.90 371.33 L 820.40 371.35 C 824.33 372.71 828.18 374.32 832.29 375.11 C 832.87 375.15 834.02 375.22 834.59 375.26 C 835.61 375.23 837.64 375.18 838.66 375.15 C 839.25 375.15 840.43 375.15 841.02 375.15 C 841.60 375.11 842.78 375.01 843.37 374.96 C 848.20 374.11 853.05 373.51 857.93 372.87 C 858.91 378.96 859.96 385.04 861.10 391.11 C 856.15 392.53 851.17 393.74 846.27 395.30 C 847.26 393.84 845.15 393.23 844.24 394.11 C 842.75 394.75 841.21 395.04 839.61 394.99 C 838.59 394.75 837.63 394.88 836.73 395.38 L 835.39 395.38 C 833.29 395.21 831.24 395.07 829.22 394.97 C 828.61 394.96 827.39 394.94 826.78 394.93 C 818.49 395.96 810.29 392.26 804.21 386.87 C 802.47 385.21 800.74 383.56 799.00 381.92 C 794.44 377.18 791.45 370.75 790.84 364.20 C 790.77 349.30 790.87 334.40 791.13 319.51 C 791.12 318.95 791.09 317.84 791.07 317.29 C 791.87 311.28 793.78 305.21 797.40 300.28 C 798.32 299.40 798.87 298.21 798.90 296.93 C 800.42 295.39 802.03 293.94 803.67 292.53 C 810.44 288.37 818.08 285.05 826.18 285.08 C 827.18 285.22 828.10 285.00 828.94 284.41 Z" />
<path fill="#ffffff" opacity="1.00" d=" M 286.87 287.99 C 287.08 287.44 287.49 286.35 287.70 285.80 L 288.76 285.81 C 300.42 285.95 312.08 285.83 323.74 285.98 C 324.98 286.03 326.22 286.04 327.46 286.03 C 334.62 286.83 341.90 289.11 347.67 293.53 C 348.05 294.46 348.70 295.15 349.62 295.58 C 350.54 296.53 351.53 297.41 352.58 298.23 C 353.00 299.12 353.65 299.79 354.54 300.25 C 358.30 305.14 359.85 311.33 361.08 317.25 C 361.06 317.81 361.01 318.92 360.99 319.48 C 361.07 324.54 361.23 329.63 361.15 334.71 C 361.07 336.26 361.01 337.82 361.00 339.38 C 360.69 345.21 358.20 351.18 353.47 354.78 C 352.45 355.21 351.93 355.96 351.93 357.03 C 351.87 357.68 351.75 358.96 351.69 359.60 L 351.34 358.94 C 351.02 357.28 349.10 358.02 348.97 359.34 C 344.83 365.98 335.64 367.42 328.54 368.65 C 327.73 367.98 326.81 367.73 325.79 367.87 C 324.82 367.84 323.85 367.85 322.89 367.90 C 317.95 368.04 313.04 367.98 308.12 368.26 L 308.07 369.19 C 307.92 376.70 308.01 384.22 308.04 391.75 C 307.88 392.31 307.54 393.45 307.37 394.01 C 300.93 393.92 294.50 393.88 288.08 393.53 C 287.62 393.17 286.69 392.45 286.23 392.09 C 287.99 357.43 286.63 322.68 286.87 287.99 M 308.11 305.39 L 308.76 305.41 C 307.31 320.09 307.82 334.90 308.71 349.60 L 308.74 348.90 C 313.89 348.87 319.03 348.67 324.20 348.50 C 327.82 348.25 331.68 346.81 334.06 344.04 C 335.83 344.41 336.46 343.72 335.95 341.98 C 338.59 339.90 339.12 336.24 339.02 333.08 C 340.82 333.47 340.89 330.34 339.51 329.75 C 340.65 328.32 340.80 325.81 339.55 324.41 C 340.70 322.98 340.48 322.14 338.88 321.89 C 338.74 318.51 337.68 315.07 335.51 312.43 C 336.07 310.69 335.46 309.99 333.67 310.32 C 330.79 307.21 326.07 306.79 322.24 305.63 C 317.54 305.31 312.80 305.41 308.11 305.39 Z" />
<path fill="#ffffff" opacity="1.00" d=" M 398.86 288.23 C 399.00 286.79 399.79 286.00 401.23 285.86 C 413.04 285.64 424.86 285.94 436.67 286.06 C 437.64 286.10 438.61 286.09 439.58 286.04 C 446.67 286.92 454.26 288.96 459.60 293.96 C 460.20 294.99 461.04 295.32 462.12 294.96 C 461.60 296.73 463.26 298.39 465.04 297.88 C 464.67 298.95 465.00 299.79 466.04 300.40 C 474.10 309.07 474.08 321.94 474.12 333.01 C 474.44 340.91 471.85 349.39 466.18 355.02 C 464.33 356.62 462.49 358.24 460.66 359.86 L 460.04 360.37 L 459.41 360.85 C 458.08 361.38 457.49 362.94 458.56 364.05 C 463.33 373.18 467.91 382.43 471.81 391.99 C 470.55 391.84 469.95 392.40 470.02 393.66 C 463.74 393.87 457.48 394.04 451.23 394.30 C 451.83 393.39 451.71 392.53 450.87 391.73 C 446.51 385.18 443.14 377.98 441.01 370.42 C 440.87 368.72 439.30 367.76 437.71 368.10 C 431.97 368.20 426.25 368.44 420.54 368.72 C 420.31 376.88 420.14 385.07 420.32 393.25 L 420.34 394.22 C 413.12 394.08 405.91 393.98 398.70 393.87 L 398.72 392.81 C 399.37 357.95 398.86 323.09 398.86 288.23 M 420.01 304.79 C 419.97 319.56 419.97 334.33 420.01 349.11 C 425.40 348.93 430.79 348.73 436.19 348.51 C 439.52 348.49 442.81 347.04 444.89 344.40 C 446.79 345.82 449.82 342.80 448.41 340.90 C 449.82 339.68 451.20 338.17 451.29 336.21 C 451.41 330.65 451.37 325.09 451.21 319.55 L 451.23 320.21 C 450.74 317.37 449.78 314.37 447.63 312.35 C 448.08 310.59 447.42 309.92 445.66 310.35 C 442.81 307.20 438.07 306.73 434.24 305.60 C 429.51 305.09 424.74 305.02 420.01 304.79 Z" />
<path fill="#ffffff" opacity="1.00" d=" M 510.22 287.70 C 510.29 287.16 510.44 286.10 510.51 285.56 L 511.70 285.60 C 532.36 286.36 553.05 285.93 573.72 285.61 C 575.18 286.05 576.03 286.93 576.26 288.22 C 576.27 293.38 576.23 298.56 576.19 303.73 C 576.18 304.20 576.16 305.13 576.15 305.60 C 575.68 305.59 574.75 305.55 574.28 305.54 C 560.03 304.91 545.75 304.87 531.51 305.43 C 531.24 313.56 530.81 321.71 531.07 329.85 L 532.05 329.92 C 544.09 331.07 556.88 327.82 568.56 331.79 C 568.39 337.42 568.31 343.07 568.24 348.72 C 568.23 349.19 568.20 350.13 568.19 350.60 C 567.71 350.59 566.76 350.56 566.28 350.55 C 554.52 350.10 542.75 349.98 530.98 349.91 C 530.99 357.95 531.03 366.00 530.99 374.04 C 545.23 374.10 559.48 373.78 573.73 373.69 C 575.20 374.08 576.04 374.92 576.26 376.21 C 576.30 381.52 576.26 386.86 576.29 392.18 C 576.29 392.65 576.29 393.58 576.29 394.05 C 554.55 393.67 532.79 394.69 511.07 393.54 C 510.61 393.18 509.69 392.45 509.23 392.09 C 511.30 357.33 509.04 322.48 510.22 287.70 Z" />
<path fill="#ffffff" opacity="1.00" d=" M 616.86 288.23 C 617.01 286.80 617.80 286.01 619.23 285.83 C 630.70 285.66 642.19 285.91 653.67 286.06 C 654.63 286.10 655.60 286.09 656.58 286.04 C 664.20 286.88 672.08 289.47 677.82 294.74 C 678.97 295.99 680.20 297.17 681.46 298.32 C 682.09 299.25 682.83 300.13 683.68 300.91 C 686.94 305.74 689.24 311.42 690.05 317.22 C 690.11 332.55 690.17 347.87 690.18 363.20 C 689.84 369.52 687.42 375.88 682.93 380.42 L 682.33 380.99 C 680.46 382.66 678.65 384.40 676.90 386.19 C 671.92 391.23 664.58 393.26 657.70 393.65 C 656.91 392.97 656.02 392.69 655.01 392.80 C 654.00 392.68 653.10 392.95 652.31 393.60 C 640.47 394.57 628.56 394.01 616.70 393.91 L 616.72 392.83 C 617.37 357.96 616.86 323.09 616.86 288.23 M 638.01 304.79 C 638.18 328.04 637.35 351.32 638.72 374.55 L 638.74 373.86 C 643.26 373.83 647.76 373.76 652.31 373.70 C 655.87 373.81 659.56 372.41 661.82 369.58 C 663.35 370.98 665.97 368.38 664.60 366.84 C 667.69 364.70 668.15 360.67 668.17 357.20 C 669.29 345.36 669.23 333.42 668.13 321.58 L 668.14 322.26 C 667.52 318.92 666.54 315.56 664.48 312.83 C 665.91 312.09 665.09 309.24 663.43 309.68 C 664.39 307.71 660.40 307.24 660.92 309.38 C 657.81 307.85 654.59 306.42 651.24 305.61 C 646.84 305.20 642.39 305.05 638.01 304.79 Z" />
<path fill="#ffffff" opacity="1.00" d=" M 728.69 288.40 C 729.16 286.98 730.02 286.12 731.27 285.81 C 737.11 285.70 742.96 285.83 748.83 285.87 C 749.40 286.03 750.55 286.35 751.12 286.51 L 751.12 287.67 C 751.07 322.44 750.69 357.22 751.22 391.99 C 749.71 391.67 749.02 392.27 749.16 393.80 C 743.07 393.84 737.00 393.82 730.94 393.71 C 730.91 392.43 730.27 391.92 729.03 392.15 L 729.02 391.19 C 728.89 356.93 729.23 322.66 728.69 288.40 Z" />
<path fill="#ffffff" opacity="1.00" d=" M 897.08 286.53 L 898.27 286.22 C 922.12 285.43 946.00 286.57 969.87 285.59 L 971.10 285.56 C 971.60 292.21 971.82 298.88 971.87 305.56 C 971.47 305.55 970.67 305.54 970.27 305.53 C 961.68 305.32 953.09 305.35 944.53 305.61 C 943.51 334.31 944.08 363.03 944.11 391.75 C 943.93 392.31 943.56 393.43 943.37 393.99 C 937.18 393.91 931.02 393.83 924.87 393.63 C 924.98 392.02 924.25 391.45 922.67 391.93 C 923.34 363.14 923.32 334.31 922.39 305.53 C 914.15 305.34 905.93 305.21 897.71 305.38 L 897.12 305.39 C 896.65 305.05 895.71 304.36 895.25 304.02 C 895.59 298.28 895.59 292.52 895.25 286.79 C 895.71 286.73 896.62 286.60 897.08 286.53 Z" />
<path fill="#ffffff" opacity="1.00" d=" M 1033.92 285.75 L 1035.11 285.76 C 1043.13 285.83 1051.16 285.67 1059.21 285.39 L 1060.25 285.35 C 1060.41 286.27 1060.71 287.14 1061.16 287.98 C 1070.34 315.77 1078.37 343.95 1087.14 371.88 C 1089.37 379.16 1091.79 386.40 1093.43 393.85 C 1086.35 393.98 1079.32 393.93 1072.27 394.29 C 1072.80 393.35 1072.63 392.50 1071.75 391.74 C 1068.77 387.65 1068.03 382.46 1066.92 377.64 C 1053.64 376.87 1040.33 376.87 1027.07 377.71 C 1025.60 382.38 1025.72 387.95 1022.30 391.80 C 1021.36 392.52 1021.16 393.37 1021.71 394.33 C 1015.44 394.08 1009.19 393.91 1002.96 393.69 C 1003.02 392.42 1002.43 391.86 1001.18 391.99 C 1009.29 363.52 1018.61 335.40 1026.99 307.00 C 1029.15 299.87 1031.28 292.72 1033.92 285.75 M 1045.94 314.61 L 1045.93 315.34 C 1043.02 329.50 1037.80 343.05 1033.93 356.96 C 1042.63 356.99 1051.36 357.00 1060.09 357.00 C 1055.74 343.47 1052.70 329.43 1047.56 316.18 C 1047.71 315.78 1048.01 314.99 1048.16 314.59 C 1048.86 312.59 1044.97 312.65 1045.94 314.61 Z" />
</g>
<g id="#b0b0b0b0">
<path fill="#b0b0b0" opacity="0.69" d=" M 288.76 285.81 C 300.18 285.45 312.02 283.41 323.31 285.82 L 323.74 285.98 C 312.08 285.83 300.42 285.95 288.76 285.81 Z" />
<path fill="#b0b0b0" opacity="0.69" d=" M 400.57 285.89 C 412.34 285.60 424.55 283.27 436.18 285.71 L 436.67 286.06 C 424.86 285.94 413.04 285.64 401.23 285.86 L 400.57 285.89 Z" />
<path fill="#b0b0b0" opacity="0.69" d=" M 511.70 285.60 C 532.57 284.70 553.50 284.55 574.38 285.60 L 573.72 285.61 C 553.05 285.93 532.36 286.36 511.70 285.60 Z" />
<path fill="#b0b0b0" opacity="0.69" d=" M 618.56 285.85 C 630.00 285.55 641.88 283.37 653.19 285.70 L 653.67 286.06 C 642.19 285.91 630.70 285.66 619.23 285.83 L 618.56 285.85 Z" />
<path fill="#b0b0b0" opacity="0.69" d=" M 730.59 285.82 C 736.80 285.46 743.05 285.24 749.29 285.25 L 748.83 285.87 C 742.96 285.83 737.11 285.70 731.27 285.81 L 730.59 285.82 Z" />
<path fill="#b0b0b0" opacity="0.69" d=" M 897.55 286.25 C 921.78 283.96 946.22 284.88 970.52 285.57 L 969.87 285.59 C 946.00 286.57 922.12 285.43 898.27 286.22 L 897.55 286.25 Z" />
<path fill="#b0b0b0" opacity="0.69" d=" M 1034.41 285.75 C 1042.64 285.28 1050.94 284.95 1059.21 285.39 C 1051.16 285.67 1043.13 285.83 1035.11 285.76 L 1034.41 285.75 Z" />
<path fill="#b0b0b0" opacity="0.69" d=" M 894.99 286.02 L 895.25 286.79 C 895.59 292.52 895.59 298.28 895.25 304.02 L 895.07 304.72 C 895.03 298.48 895.01 292.25 894.99 286.02 Z" />
<path fill="#b0b0b0" opacity="0.69" d=" M 398.88 287.57 L 398.86 288.23 C 398.86 323.09 399.37 357.95 398.72 392.81 L 398.71 393.52 C 397.62 358.23 397.34 322.84 398.88 287.57 Z" />
<path fill="#b0b0b0" opacity="0.69" d=" M 616.88 287.57 L 616.86 288.23 C 616.86 323.09 617.37 357.96 616.72 392.83 L 616.70 393.51 C 615.63 358.23 615.33 322.84 616.88 287.57 Z" />
<path fill="#b0b0b0" opacity="0.69" d=" M 459.60 293.96 C 460.24 294.06 461.52 294.25 462.16 294.34 L 462.12 294.96 C 461.04 295.32 460.20 294.99 459.60 293.96 Z" />
<path fill="#b0b0b0" opacity="0.69" d=" M 677.82 294.74 C 679.77 293.30 682.76 296.32 681.46 298.32 C 680.20 297.17 678.97 295.99 677.82 294.74 Z" />
<path fill="#b0b0b0" opacity="0.69" d=" M 349.62 295.58 C 351.12 294.09 353.92 296.57 352.58 298.23 C 351.53 297.41 350.54 296.53 349.62 295.58 Z" />
<path fill="#b0b0b0" opacity="0.69" d=" M 465.04 297.88 L 465.66 297.84 C 465.75 298.48 465.94 299.76 466.04 300.40 C 465.00 299.79 464.67 298.95 465.04 297.88 Z" />
<path fill="#b0b0b0" opacity="0.69" d=" M 308.11 305.39 C 312.80 305.41 317.54 305.31 322.24 305.63 C 317.74 305.52 313.25 305.53 308.76 305.41 L 308.11 305.39 Z" />
<path fill="#b0b0b0" opacity="0.69" d=" M 420.01 304.79 C 424.74 305.02 429.51 305.09 434.24 305.60 C 429.80 305.64 425.40 305.80 420.98 305.93 C 420.98 319.97 420.99 334.02 421.02 348.06 C 426.07 348.24 431.12 348.39 436.19 348.51 C 430.79 348.73 425.40 348.93 420.01 349.11 C 419.97 334.33 419.97 319.56 420.01 304.79 Z" />
<path fill="#b0b0b0" opacity="0.69" d=" M 531.51 305.43 C 545.75 304.87 560.03 304.91 574.28 305.54 C 560.03 306.19 545.75 306.22 531.51 305.43 Z" />
<path fill="#b0b0b0" opacity="0.69" d=" M 638.01 304.79 C 642.39 305.05 646.84 305.20 651.24 305.61 C 647.15 305.65 643.06 305.73 639.00 305.86 C 638.93 328.23 639.20 350.60 638.77 372.97 L 638.74 373.86 L 638.72 374.55 C 637.35 351.32 638.18 328.04 638.01 304.79 Z" />
<path fill="#b0b0b0" opacity="0.69" d=" M 897.71 305.38 C 905.93 305.21 914.15 305.34 922.39 305.53 C 914.15 305.82 905.91 305.96 897.71 305.38 Z" />
<path fill="#b0b0b0" opacity="0.69" d=" M 944.53 305.61 C 953.09 305.35 961.68 305.32 970.27 305.53 C 961.68 305.81 953.10 306.05 944.53 305.61 Z" />
<path fill="#b0b0b0" opacity="0.69" d=" M 663.43 309.68 C 665.09 309.24 665.91 312.09 664.48 312.83 C 663.77 311.95 663.03 310.85 663.43 309.68 Z" />
<path fill="#b0b0b0" opacity="0.69" d=" M 361.08 317.25 C 362.69 317.87 362.85 318.76 361.55 319.91 L 360.99 319.48 C 361.01 318.92 361.06 317.81 361.08 317.25 Z" />
<path fill="#b0b0b0" opacity="0.69" d=" M 790.58 319.95 L 791.13 319.51 C 790.87 334.40 790.77 349.30 790.84 364.20 C 790.20 349.51 788.67 334.55 790.58 319.95 Z" />
<path fill="#b0b0b0" opacity="0.69" d=" M 338.88 321.89 C 340.48 322.14 340.70 322.98 339.55 324.41 L 338.99 324.40 C 338.96 323.78 338.91 322.52 338.88 321.89 Z" />
<path fill="#b0b0b0" opacity="0.69" d=" M 339.04 329.77 L 339.51 329.75 C 340.89 330.34 340.82 333.47 339.02 333.08 C 338.96 331.97 338.97 330.87 339.04 329.77 Z" />
<path fill="#b0b0b0" opacity="0.69" d=" M 361.15 334.71 L 361.22 334.40 C 363.12 335.19 363.27 339.13 361.00 339.38 C 361.01 337.82 361.07 336.26 361.15 334.71 Z" />
<path fill="#b0b0b0" opacity="0.69" d=" M 308.76 347.98 C 313.91 348.16 319.04 348.38 324.20 348.50 C 319.03 348.67 313.89 348.87 308.74 348.90 L 308.76 347.98 Z" />
<path fill="#b0b0b0" opacity="0.69" d=" M 351.93 357.03 C 351.93 355.96 352.45 355.21 353.47 354.78 C 354.13 356.35 353.62 357.10 351.93 357.03 Z" />
<path fill="#b0b0b0" opacity="0.69" d=" M 348.97 359.34 C 349.10 358.02 351.02 357.28 351.34 358.94 C 350.75 359.04 349.56 359.24 348.97 359.34 Z" />
<path fill="#b0b0b0" opacity="0.69" d=" M 322.89 367.90 C 323.85 367.85 324.82 367.84 325.79 367.87 L 325.76 368.61 C 324.46 369.76 323.36 369.63 322.44 368.23 L 322.89 367.90 Z" />
<path fill="#b0b0b0" opacity="0.69" d=" M 437.71 368.10 C 439.30 367.76 440.87 368.72 441.01 370.42 C 439.57 371.23 437.52 369.64 437.34 368.14 L 437.71 368.10 Z" />
<path fill="#b0b0b0" opacity="0.69" d=" M 420.32 393.25 C 420.14 385.07 420.31 376.88 420.54 368.72 C 420.81 376.88 421.11 385.09 420.32 393.25 Z" />
<path fill="#b0b0b0" opacity="0.69" d=" M 799.00 381.92 C 800.74 383.56 802.47 385.21 804.21 386.87 C 802.37 385.32 800.64 383.66 799.00 381.92 Z" />
<path fill="#b0b0b0" opacity="0.69" d=" M 470.02 393.66 C 469.95 392.40 470.55 391.84 471.81 391.99 C 472.11 393.50 471.51 394.06 470.02 393.66 Z" />
<path fill="#b0b0b0" opacity="0.69" d=" M 729.03 392.15 C 730.27 391.92 730.91 392.43 730.94 393.71 C 729.47 394.19 728.83 393.68 729.03 392.15 Z" />
<path fill="#b0b0b0" opacity="0.69" d=" M 749.16 393.80 C 749.02 392.27 749.71 391.67 751.22 391.99 C 751.51 393.71 750.82 394.32 749.16 393.80 Z" />
<path fill="#b0b0b0" opacity="0.69" d=" M 1001.18 391.99 C 1002.43 391.86 1003.02 392.42 1002.96 393.69 C 1001.45 394.07 1000.85 393.50 1001.18 391.99 Z" />
<path fill="#b0b0b0" opacity="0.69" d=" M 655.01 392.80 C 656.02 392.69 656.91 392.97 657.70 393.65 C 657.03 393.64 655.68 393.62 655.01 393.61 L 655.01 392.80 Z" />
</g>
<g id="#75757575">
<path fill="#757575" opacity="0.46" d=" M 323.31 285.82 C 323.76 283.90 327.37 283.96 327.46 286.03 C 326.22 286.04 324.98 286.03 323.74 285.98 L 323.31 285.82 Z" />
<path fill="#757575" opacity="0.46" d=" M 436.18 285.71 C 436.48 283.96 439.63 284.26 439.58 286.04 C 438.61 286.09 437.64 286.10 436.67 286.06 L 436.18 285.71 Z" />
<path fill="#757575" opacity="0.46" d=" M 653.19 285.70 C 653.48 283.95 656.63 284.26 656.58 286.04 C 655.60 286.09 654.63 286.10 653.67 286.06 L 653.19 285.70 Z" />
<path fill="#757575" opacity="0.46" d=" M 749.29 285.25 C 750.92 284.61 751.53 285.03 751.12 286.51 C 750.55 286.35 749.40 286.03 748.83 285.87 L 749.29 285.25 Z" />
<path fill="#757575" opacity="0.46" d=" M 576.26 288.22 L 576.26 287.55 C 576.39 293.16 576.37 298.79 576.19 304.41 L 576.19 303.73 C 576.23 298.56 576.27 293.38 576.26 288.22 Z" />
<path fill="#757575" opacity="0.46" d=" M 798.90 296.93 C 800.30 294.85 802.15 293.15 804.34 291.93 L 803.67 292.53 C 802.03 293.94 800.42 295.39 798.90 296.93 Z" />
<path fill="#757575" opacity="0.46" d=" M 347.67 293.53 C 349.44 293.13 350.09 293.81 349.62 295.58 C 348.70 295.15 348.05 294.46 347.67 293.53 Z" />
<path fill="#757575" opacity="0.46" d=" M 352.58 298.23 C 354.38 297.78 355.04 298.46 354.54 300.25 C 353.65 299.79 353.00 299.12 352.58 298.23 Z" />
<path fill="#757575" opacity="0.46" d=" M 681.46 298.32 C 682.95 297.09 685.13 299.62 683.68 300.91 C 682.83 300.13 682.09 299.25 681.46 298.32 Z" />
<path fill="#757575" opacity="0.46" d=" M 831.69 304.64 C 834.89 304.37 838.02 304.59 841.26 304.77 C 838.00 304.72 834.89 304.72 831.69 304.64 Z" />
<path fill="#757575" opacity="0.46" d=" M 308.71 349.60 C 307.82 334.90 307.31 320.09 308.76 305.41 C 309.07 319.60 309.10 333.79 308.76 347.98 L 308.74 348.90 L 308.71 349.60 Z" />
<path fill="#757575" opacity="0.46" d=" M 531.07 329.85 C 530.81 321.71 531.24 313.56 531.51 305.43 C 531.82 313.58 531.97 321.75 532.05 329.92 L 531.07 329.85 Z" />
<path fill="#757575" opacity="0.46" d=" M 922.39 305.53 C 923.32 334.31 923.34 363.14 922.67 391.93 L 922.23 392.56 C 922.02 363.56 921.53 334.52 922.39 305.53 Z" />
<path fill="#757575" opacity="0.46" d=" M 333.67 310.32 C 335.46 309.99 336.07 310.69 335.51 312.43 C 334.61 311.97 334.00 311.27 333.67 310.32 Z" />
<path fill="#757575" opacity="0.46" d=" M 1045.94 314.61 C 1044.97 312.65 1048.86 312.59 1048.16 314.59 C 1047.60 314.59 1046.49 314.61 1045.94 314.61 Z" />
<path fill="#757575" opacity="0.46" d=" M 690.05 317.22 L 690.04 316.55 C 691.46 332.05 691.49 347.68 690.18 363.20 C 690.17 347.87 690.11 332.55 690.05 317.22 Z" />
<path fill="#757575" opacity="0.46" d=" M 790.58 319.95 C 789.27 318.79 789.43 317.90 791.07 317.29 C 791.09 317.84 791.12 318.95 791.13 319.51 L 790.58 319.95 Z" />
<path fill="#757575" opacity="0.46" d=" M 451.23 320.21 L 451.21 319.55 C 451.37 325.09 451.41 330.65 451.29 336.21 C 451.53 330.88 451.34 325.53 451.23 320.21 Z" />
<path fill="#757575" opacity="0.46" d=" M 812.72 359.35 C 811.57 347.17 811.68 334.88 812.74 322.71 C 812.99 334.91 813.21 347.14 812.72 359.35 Z" />
<path fill="#757575" opacity="0.46" d=" M 338.99 324.40 L 339.55 324.41 C 340.80 325.81 340.65 328.32 339.51 329.75 L 339.04 329.77 C 339.02 327.97 339.01 326.19 338.99 324.40 Z" />
<path fill="#757575" opacity="0.46" d=" M 568.56 331.79 L 568.57 331.28 C 568.55 337.30 568.59 343.34 568.24 349.37 L 568.24 348.72 C 568.31 343.07 568.39 337.42 568.56 331.79 Z" />
<path fill="#757575" opacity="0.46" d=" M 444.89 344.40 C 445.95 343.12 447.13 341.95 448.41 340.90 C 449.82 342.80 446.79 345.82 444.89 344.40 Z" />
<path fill="#757575" opacity="0.46" d=" M 334.06 344.04 C 334.40 343.09 335.03 342.41 335.95 341.98 C 336.46 343.72 335.83 344.41 334.06 344.04 Z" />
<path fill="#757575" opacity="0.46" d=" M 530.98 349.91 C 542.75 349.98 554.52 350.10 566.28 350.55 C 554.85 350.96 543.42 351.05 531.99 351.03 C 531.99 358.34 532.00 365.66 532.00 372.98 C 546.13 372.96 560.28 372.71 574.39 373.69 L 573.73 373.69 C 559.48 373.78 545.23 374.10 530.99 374.04 C 531.03 366.00 530.99 357.95 530.98 349.91 Z" />
<path fill="#757575" opacity="0.46" d=" M 458.56 364.05 C 457.49 362.94 458.08 361.38 459.41 360.85 C 460.23 362.20 459.95 363.27 458.56 364.05 Z" />
<path fill="#757575" opacity="0.46" d=" M 661.82 369.58 C 662.60 368.53 663.54 367.61 664.60 366.84 C 665.97 368.38 663.35 370.98 661.82 369.58 Z" />
<path fill="#757575" opacity="0.46" d=" M 325.79 367.87 C 326.81 367.73 327.73 367.98 328.54 368.65 C 327.84 368.64 326.46 368.62 325.76 368.61 L 325.79 367.87 Z" />
<path fill="#757575" opacity="0.46" d=" M 308.07 369.19 L 309.05 369.15 C 308.98 376.84 308.90 384.53 308.65 392.22 L 308.04 391.75 C 308.01 384.22 307.92 376.70 308.07 369.19 Z" />
<path fill="#757575" opacity="0.46" d=" M 638.77 372.97 C 643.28 373.22 647.77 373.49 652.31 373.70 C 647.76 373.76 643.26 373.83 638.74 373.86 L 638.77 372.97 Z" />
<path fill="#757575" opacity="0.46" d=" M 840.99 374.43 C 842.25 373.23 843.05 373.41 843.37 374.96 C 842.78 375.01 841.60 375.11 841.02 375.15 L 840.99 374.43 Z" />
<path fill="#757575" opacity="0.46" d=" M 576.26 376.21 L 576.26 375.54 C 576.38 381.08 576.42 386.63 576.29 392.18 C 576.26 386.86 576.30 381.52 576.26 376.21 Z" />
<path fill="#757575" opacity="0.46" d=" M 1027.07 377.71 C 1040.33 376.87 1053.64 376.87 1066.92 377.64 C 1053.63 378.10 1040.34 378.23 1027.07 377.71 Z" />
<path fill="#757575" opacity="0.46" d=" M 286.04 392.78 L 286.23 392.09 C 286.69 392.45 287.62 393.17 288.08 393.53 C 287.08 394.63 286.40 394.38 286.04 392.78 Z" />
<path fill="#757575" opacity="0.46" d=" M 509.04 392.78 L 509.23 392.09 C 509.69 392.45 510.61 393.18 511.07 393.54 C 510.07 394.63 509.40 394.37 509.04 392.78 Z" />
<path fill="#757575" opacity="0.46" d=" M 944.11 391.75 L 944.70 392.23 C 945.27 393.90 944.83 394.48 943.37 393.99 C 943.56 393.43 943.93 392.31 944.11 391.75 Z" />
<path fill="#757575" opacity="0.46" d=" M 1021.71 394.33 C 1021.16 393.37 1021.36 392.52 1022.30 391.80 C 1023.46 392.98 1023.26 393.82 1021.71 394.33 Z" />
<path fill="#757575" opacity="0.46" d=" M 844.24 394.11 C 845.15 393.23 847.26 393.84 846.27 395.30 C 845.76 395.00 844.75 394.40 844.24 394.11 Z" />
<path fill="#757575" opacity="0.46" d=" M 829.22 394.97 C 831.24 395.07 833.29 395.21 835.39 395.38 C 833.99 397.01 830.76 397.18 829.28 395.55 L 829.22 394.97 Z" />
</g>
</svg>
