<?xml version="1.0" encoding="UTF-8" ?>
<!DOCTYPE svg PUBLIC "-//W3C//DTD SVG 1.1//EN" "http://www.w3.org/Graphics/SVG/1.1/DTD/svg11.dtd">
<svg width="1280pt" height="854pt" viewBox="0 0 1280 854" version="1.1" xmlns="http://www.w3.org/2000/svg">
<g id="#bf2928ff">
<path fill="#bf2928" opacity="1.00" d=" M 104.74 261.48 C 115.95 261.51 127.15 261.45 138.36 261.51 C 139.47 269.34 140.64 277.17 141.82 284.99 C 151.18 287.08 160.19 290.74 168.40 295.70 C 169.55 296.22 170.96 297.49 172.16 296.34 C 178.23 291.78 184.24 287.13 190.26 282.48 C 198.02 290.48 205.60 298.70 214.00 306.03 C 209.68 312.94 204.35 319.16 199.62 325.80 C 205.39 334.75 209.33 344.77 211.82 355.10 C 219.71 356.01 227.55 357.27 235.39 358.47 C 235.39 369.69 235.38 380.91 235.39 392.12 C 227.52 393.21 219.66 394.43 211.79 395.55 C 209.37 405.93 205.31 415.92 199.62 424.95 C 204.55 431.25 209.16 437.80 214.04 444.14 C 205.95 451.96 198.12 460.03 190.17 467.98 C 184.22 463.58 178.36 459.06 172.41 454.68 C 170.80 453.34 168.97 454.84 167.50 455.59 C 159.53 460.27 150.80 463.56 141.80 465.62 C 140.69 473.44 139.46 481.25 138.36 489.07 C 127.73 489.08 117.10 489.07 106.47 489.07 C 106.47 474.76 106.46 460.45 106.48 446.13 C 120.92 448.77 136.15 447.57 149.71 441.79 C 167.89 434.22 182.64 418.83 189.30 400.29 C 195.54 383.46 195.10 364.29 188.25 347.72 C 181.61 331.42 168.72 317.77 152.88 310.11 C 129.89 298.90 100.79 301.07 80.08 316.26 C 65.41 316.28 50.74 316.28 36.08 316.26 C 33.79 312.81 30.93 309.75 29.05 306.04 C 37.26 298.77 44.83 290.77 52.33 282.76 C 59.16 286.67 64.82 292.30 71.35 296.64 C 72.52 297.28 73.61 296.08 74.63 295.67 C 82.85 290.53 92.06 287.23 101.38 284.74 C 102.32 276.96 103.61 269.23 104.74 261.48 Z" />
<path fill="#bf2928" opacity="1.00" d=" M 32.52 349.43 C 35.61 341.21 38.83 332.97 43.75 325.64 C 70.16 325.72 96.58 325.65 122.99 325.67 C 136.00 326.03 148.91 331.60 157.73 341.25 C 166.08 350.37 171.20 362.64 170.88 375.08 C 171.55 393.51 160.42 411.79 143.76 419.70 C 132.93 425.13 120.14 426.12 108.46 423.08 C 104.42 422.08 100.72 420.11 96.77 418.86 C 96.74 434.08 96.70 449.29 96.79 464.50 C 88.53 462.15 80.58 458.75 73.25 454.27 C 73.33 430.24 73.27 406.21 73.28 382.19 C 81.17 382.31 89.08 381.97 96.96 382.39 C 99.98 396.29 116.46 404.47 129.60 399.72 C 139.04 396.81 146.17 387.98 147.38 378.23 C 148.32 370.09 144.89 361.75 138.90 356.25 C 134.04 351.88 127.56 349.43 121.04 349.47 C 91.53 349.44 62.02 349.54 32.52 349.43 Z" />
<path fill="#bf2928" opacity="1.00" d=" M 7.86 359.20 C 22.20 359.20 36.55 359.18 50.89 359.21 C 46.80 379.58 50.96 401.70 63.60 418.37 C 63.69 432.18 63.65 446.00 63.62 459.81 C 60.01 462.48 56.46 465.23 52.93 468.01 C 44.94 460.05 37.01 452.03 29.02 444.09 C 33.95 437.75 38.69 431.26 43.65 424.94 C 37.86 415.98 33.83 405.97 31.29 395.63 C 23.49 394.38 15.67 393.26 7.86 392.13 C 7.86 381.15 7.86 370.18 7.86 359.20 Z" />
<path fill="#bf2928" opacity="1.00" d=" M 645.63 434.57 C 651.13 432.17 657.65 432.80 663.01 435.32 C 662.33 437.06 661.62 438.79 660.92 440.53 C 657.10 440.11 653.07 438.94 649.33 440.29 C 647.10 441.27 647.05 444.83 649.36 445.79 C 653.98 448.24 659.66 448.72 663.55 452.52 C 667.73 456.67 666.54 464.55 661.40 467.38 C 654.82 471.05 646.61 469.41 640.35 465.86 C 641.28 463.94 642.27 462.05 643.31 460.20 C 647.43 462.08 652.11 463.81 656.66 462.43 C 659.23 461.79 659.63 457.97 657.51 456.56 C 653.07 453.64 647.28 453.35 643.19 449.79 C 638.47 445.76 639.96 437.02 645.63 434.57 Z" />
<path fill="#bf2928" opacity="1.00" d=" M 341.27 433.67 C 343.66 433.57 346.05 433.56 348.45 433.63 C 348.48 445.43 348.68 457.23 348.35 469.03 C 345.99 468.98 343.63 468.94 341.28 468.84 C 341.19 457.11 341.21 445.39 341.27 433.67 Z" />
<path fill="#bf2928" opacity="1.00" d=" M 402.05 433.67 C 404.31 433.63 406.64 433.25 408.87 433.83 C 413.71 440.68 417.87 448.00 422.46 455.02 C 422.50 447.88 422.35 440.73 422.57 433.59 C 424.86 433.78 427.54 432.92 429.60 434.10 C 429.91 445.67 429.71 457.26 429.68 468.85 C 427.44 468.93 425.20 468.97 422.96 469.03 C 418.25 462.10 413.84 454.98 409.26 447.98 C 409.20 454.97 409.38 461.96 409.14 468.95 C 406.79 468.97 404.45 468.97 402.10 468.92 C 401.88 457.17 401.98 445.42 402.05 433.67 Z" />
<path fill="#bf2928" opacity="1.00" d=" M 483.65 468.96 C 483.37 457.17 483.36 445.36 483.65 433.57 C 490.60 433.99 499.19 431.72 504.58 437.41 C 509.25 442.50 507.21 449.88 507.65 456.11 C 508.10 461.65 504.41 467.33 498.85 468.49 C 493.84 469.43 488.71 468.87 483.65 468.96 M 490.76 440.10 C 490.75 447.55 490.75 454.99 490.76 462.43 C 493.96 462.31 498.66 462.77 499.94 458.96 C 500.68 454.06 500.54 448.98 500.06 444.06 C 499.13 439.86 494.08 440.15 490.76 440.10 Z" />
<path fill="#bf2928" opacity="1.00" d=" M 560.81 433.58 C 563.18 433.56 565.56 433.57 567.94 433.66 C 568.18 441.78 567.73 449.93 568.16 458.05 C 568.66 464.39 579.81 464.36 580.21 457.97 C 580.72 449.84 579.99 441.68 580.58 433.55 C 582.86 433.51 585.14 433.51 587.43 433.55 C 587.89 440.37 587.54 447.21 587.67 454.04 C 587.75 458.24 587.45 463.03 584.19 466.10 C 580.01 469.91 573.63 470.02 568.45 468.60 C 563.81 467.32 560.87 462.65 560.82 457.98 C 560.62 449.85 560.71 441.71 560.81 433.58 Z" />
<path fill="#bf2928" opacity="1.00" d=" M 716.83 433.66 C 725.16 433.49 733.50 433.41 741.83 433.70 C 741.84 435.82 741.82 437.94 741.78 440.07 C 738.83 440.18 735.89 440.20 732.96 440.21 C 732.89 449.77 733.09 459.34 732.85 468.90 C 730.50 468.96 728.15 468.98 725.81 468.97 C 725.52 459.39 725.75 449.79 725.68 440.21 C 722.73 440.20 719.78 440.18 716.84 440.08 C 716.81 437.94 716.81 435.79 716.83 433.66 Z" />
<path fill="#bf2928" opacity="1.00" d=" M 793.81 433.63 C 800.04 433.85 806.81 432.39 812.60 435.32 C 818.47 438.48 819.25 446.05 817.96 451.93 C 817.38 454.75 815.34 456.88 813.35 458.81 C 814.93 462.15 816.81 465.39 817.78 468.99 C 815.54 469.00 813.31 468.99 811.09 468.95 C 809.79 466.21 808.52 463.46 807.26 460.72 C 805.17 460.75 803.09 460.78 801.02 460.80 C 801.00 463.51 800.98 466.21 800.88 468.92 C 798.53 468.97 796.18 468.97 793.84 468.95 C 793.63 457.18 793.69 445.40 793.81 433.63 M 801.02 440.12 C 800.99 444.81 801.00 449.51 801.01 454.20 C 804.22 454.04 808.66 454.71 810.42 451.25 C 811.44 448.56 811.50 445.31 810.25 442.69 C 808.30 439.58 804.12 440.34 801.02 440.12 Z" />
<path fill="#bf2928" opacity="1.00" d=" M 870.65 469.03 C 870.36 457.19 870.36 445.34 870.65 433.51 C 873.00 433.54 875.35 433.59 877.71 433.69 C 877.77 445.41 877.80 457.13 877.70 468.85 C 875.34 468.94 872.99 468.98 870.65 469.03 Z" />
<path fill="#bf2928" opacity="1.00" d=" M 929.29 468.99 C 932.24 457.02 936.32 445.35 939.90 433.55 C 942.89 433.53 945.89 433.53 948.89 433.63 C 952.36 445.41 956.39 457.04 959.46 468.94 C 957.16 468.80 954.63 469.50 952.49 468.54 C 951.76 466.95 951.29 465.26 950.75 463.61 C 946.46 463.60 942.17 463.60 937.88 463.61 C 937.29 465.39 936.71 467.18 936.12 468.96 C 933.83 468.99 931.55 469.00 929.29 468.99 M 939.85 456.95 C 942.82 456.95 945.80 456.95 948.78 456.96 C 947.31 452.09 945.82 447.22 944.35 442.36 C 942.84 447.22 941.34 452.09 939.85 456.95 Z" />
<path fill="#bf2928" opacity="1.00" d=" M 1011.36 434.07 C 1013.45 433.00 1016.04 433.73 1018.34 433.54 C 1018.72 443.14 1018.41 452.75 1018.51 462.35 C 1023.20 462.45 1027.92 462.11 1032.61 462.50 C 1033.66 464.36 1032.89 466.80 1033.07 468.89 C 1025.81 469.05 1018.55 469.10 1011.30 468.86 C 1011.23 457.26 1011.08 445.65 1011.36 434.07 Z" />
</g>
<g id="#000000ff">
<path fill="#000000" opacity="1.00" d=" M 822.47 284.75 C 834.66 283.07 847.28 284.33 858.99 288.06 C 861.21 288.45 861.07 291.02 860.71 292.72 C 859.86 297.23 859.52 301.87 858.24 306.29 C 857.91 306.50 857.24 306.93 856.90 307.15 C 846.06 305.15 834.32 302.11 823.72 306.75 C 816.87 309.54 812.57 316.70 812.45 323.97 C 812.34 334.32 812.37 344.67 812.44 355.03 C 812.51 362.03 816.28 369.10 822.77 372.13 C 832.36 376.78 843.47 374.93 853.46 372.75 C 855.04 372.52 857.48 371.41 858.37 373.39 C 859.56 378.50 860.34 383.74 860.91 388.95 C 860.89 391.46 857.78 391.47 856.05 392.21 C 843.05 395.49 829.06 396.83 816.02 393.09 C 805.85 390.22 797.21 382.51 793.48 372.59 C 789.10 362.27 790.61 350.87 790.35 339.97 C 790.59 328.06 788.91 315.41 794.52 304.36 C 799.46 293.35 810.74 286.33 822.47 284.75 Z" />
<path fill="#000000" opacity="1.00" d=" M 286.21 289.92 C 285.99 287.98 286.73 285.38 289.12 285.44 C 299.11 285.21 309.11 285.41 319.11 285.35 C 328.41 285.31 338.12 286.72 346.05 291.92 C 356.36 298.49 362.13 310.94 361.75 323.02 C 361.64 329.67 362.32 336.52 360.14 342.94 C 357.35 352.62 350.28 361.03 340.94 364.96 C 330.74 369.56 319.34 368.74 308.45 368.78 C 308.34 376.21 308.63 383.64 308.34 391.06 C 308.44 393.35 305.98 394.17 304.10 393.99 C 298.80 393.90 293.45 394.33 288.18 393.73 C 286.13 393.18 286.24 390.76 286.20 389.09 C 286.23 356.04 286.21 322.98 286.21 289.92 M 308.45 348.47 C 313.62 348.36 318.82 348.73 323.98 348.22 C 329.26 347.66 334.56 344.90 337.15 340.12 C 339.99 334.92 339.57 328.77 339.47 323.05 C 339.39 317.54 337.26 311.65 332.35 308.70 C 325.21 304.21 316.40 306.05 308.45 305.67 C 308.44 319.93 308.44 334.20 308.45 348.47 Z" />
<path fill="#000000" opacity="1.00" d=" M 398.49 288.93 C 398.23 286.93 399.91 285.15 401.93 285.40 C 411.97 285.27 422.02 285.37 432.06 285.36 C 440.86 285.37 449.97 286.76 457.58 291.46 C 465.12 296.00 470.45 303.71 472.71 312.16 C 474.53 318.26 473.90 324.69 474.02 330.97 C 474.33 343.15 468.52 355.48 458.31 362.33 C 462.67 371.42 467.10 380.47 471.44 389.56 C 472.77 391.29 471.39 394.00 469.19 393.89 C 463.82 394.08 458.42 394.16 453.05 393.84 C 451.39 393.79 450.88 391.96 450.18 390.79 C 446.74 383.36 443.33 375.93 439.87 368.52 C 433.48 368.95 427.08 368.74 420.68 368.79 C 420.59 376.17 420.85 383.55 420.60 390.92 C 420.75 392.85 418.89 394.13 417.11 393.95 C 411.76 394.01 406.38 394.19 401.05 393.84 C 398.60 393.72 398.34 390.92 398.43 389.05 C 398.50 355.67 398.39 322.30 398.49 288.93 M 420.68 305.67 C 420.68 319.93 420.68 334.20 420.68 348.46 C 429.18 348.11 439.02 350.16 446.08 344.15 C 451.74 339.57 451.98 331.66 451.77 324.99 C 451.91 319.06 450.30 312.39 445.01 308.98 C 437.85 304.14 428.79 306.05 420.68 305.67 Z" />
<path fill="#000000" opacity="1.00" d=" M 509.25 288.97 C 508.94 286.80 510.84 285.09 512.95 285.37 C 532.33 285.30 551.71 285.39 571.09 285.33 C 573.00 285.28 575.93 285.32 576.14 287.89 C 576.47 292.60 576.31 297.36 576.24 302.09 C 576.45 303.95 575.01 305.81 573.05 305.60 C 559.19 305.77 545.31 305.61 531.45 305.66 C 531.43 313.77 531.45 321.88 531.44 329.99 C 542.31 330.04 553.19 329.95 564.06 330.01 C 565.97 329.80 568.37 330.74 568.26 333.02 C 568.41 338.01 568.54 343.03 568.17 348.02 C 567.88 349.99 565.70 350.42 564.06 350.35 C 553.19 350.38 542.31 350.33 531.44 350.35 C 531.44 358.12 531.44 365.88 531.44 373.65 C 544.98 373.67 558.52 373.62 572.05 373.66 C 573.70 373.56 575.88 374.07 576.11 376.05 C 576.48 381.00 576.34 386.01 576.20 390.98 C 576.32 393.19 574.01 394.19 572.13 393.98 C 552.40 394.00 532.66 394.04 512.93 393.96 C 510.60 394.30 508.89 392.28 509.23 390.05 C 509.21 356.35 509.17 322.66 509.25 288.97 Z" />
<path fill="#000000" opacity="1.00" d=" M 618.40 285.60 C 625.90 284.98 633.47 285.53 640.99 285.35 C 651.20 285.26 661.93 285.05 671.31 289.73 C 679.97 293.79 686.38 301.90 688.94 311.06 C 690.60 316.20 690.52 321.66 690.45 327.00 C 690.44 337.00 690.43 347.00 690.46 357.00 C 690.65 367.79 686.12 378.86 677.58 385.65 C 670.68 391.20 661.74 393.52 653.02 393.85 C 641.47 393.98 629.85 394.33 618.33 393.70 C 616.38 393.05 616.47 390.74 616.44 389.08 C 616.47 356.01 616.45 322.94 616.45 289.87 C 616.40 288.26 616.58 286.19 618.40 285.60 M 638.69 305.67 C 638.68 328.33 638.69 350.98 638.68 373.64 C 646.26 373.35 654.72 374.99 661.40 370.44 C 666.22 367.36 668.11 361.43 668.16 355.97 C 668.27 345.34 668.21 334.70 668.19 324.06 C 668.23 318.29 666.36 311.91 661.18 308.73 C 654.51 304.41 646.19 305.94 638.69 305.67 Z" />
<path fill="#000000" opacity="1.00" d=" M 731.37 285.52 C 737.13 285.20 742.96 285.22 748.73 285.51 C 750.94 285.68 751.27 288.22 751.20 289.99 C 751.20 323.00 751.19 356.02 751.21 389.04 C 751.39 391.10 750.79 394.05 748.14 393.91 C 742.45 394.02 736.72 394.25 731.06 393.76 C 728.93 393.30 728.97 390.79 728.93 389.09 C 728.95 356.04 728.94 322.98 728.94 289.93 C 728.88 288.21 729.19 285.70 731.37 285.52 Z" />
<path fill="#000000" opacity="1.00" d=" M 895.52 287.36 C 896.24 285.04 899.03 285.39 900.94 285.32 C 923.31 285.40 945.68 285.30 968.05 285.37 C 969.75 285.21 971.89 286.03 971.89 288.05 C 972.15 293.03 972.15 298.04 971.88 303.01 C 971.85 304.54 970.38 305.69 968.92 305.59 C 960.87 305.82 952.81 305.58 944.76 305.67 C 944.74 333.78 944.79 361.90 944.73 390.01 C 944.89 391.74 944.05 393.89 942.01 393.87 C 936.38 394.09 930.71 394.15 925.10 393.84 C 922.66 393.70 922.43 390.86 922.53 388.99 C 922.55 361.22 922.54 333.44 922.54 305.66 C 914.40 305.57 906.26 305.84 898.14 305.56 C 896.28 305.62 895.15 303.74 895.32 302.06 C 895.31 297.16 895.01 292.23 895.52 287.36 Z" />
<path fill="#000000" opacity="1.00" d=" M 1032.14 288.99 C 1032.55 287.16 1033.75 285.11 1035.94 285.40 C 1043.58 285.33 1051.24 285.24 1058.87 285.44 C 1061.20 285.40 1061.78 288.01 1062.37 289.76 C 1072.54 323.23 1082.93 356.64 1093.08 390.11 C 1093.88 392.04 1092.11 394.12 1090.11 393.93 C 1085.03 394.09 1079.95 394.07 1074.89 393.94 C 1072.98 394.11 1071.66 392.51 1071.18 390.86 C 1069.59 386.44 1068.43 381.88 1066.97 377.43 C 1053.68 377.43 1040.40 377.42 1027.12 377.43 C 1025.58 382.17 1024.55 387.08 1022.72 391.72 C 1021.95 394.19 1019.06 394.02 1017.00 394.02 C 1012.33 393.89 1007.63 394.30 1002.99 393.76 C 1000.94 393.28 1000.70 390.80 1001.44 389.18 C 1011.67 355.78 1021.94 322.40 1032.14 288.99 M 1033.33 357.09 C 1042.47 357.10 1051.62 357.10 1060.78 357.10 C 1056.24 342.13 1051.70 327.17 1047.14 312.21 C 1042.53 327.17 1037.93 342.13 1033.33 357.09 Z" />
</g>
</svg>
